<svg width="22" height="29" viewBox="0 0 22 29" fill="none" xmlns="http://www.w3.org/2000/svg">
<path fill-rule="evenodd" clip-rule="evenodd" d="M21.0942 23.4402H6.03836C5.81098 23.4402 5.63232 23.2616 5.63232 23.0504V1.2869C5.63232 1.05952 5.81098 0.880859 6.03836 0.880859H21.0942C21.3053 0.880859 21.5002 1.05952 21.5002 1.2869V23.0667C21.5002 23.294 21.3053 23.4402 21.0942 23.4402ZM6.41191 22.6606H20.6881V1.69293H6.41191V22.6606Z" fill="#080808"/>
<path fill-rule="evenodd" clip-rule="evenodd" d="M17.0824 21.2152H10.1148C9.88741 21.2152 9.70875 21.0365 9.70875 20.8091C9.70875 20.4031 9.36768 20.0783 8.9454 20.0783H8.8642C8.75051 20.1107 8.62057 20.0945 8.53937 19.997C8.42568 19.9321 8.37695 19.8021 8.37695 19.6885V4.68138C8.37695 4.454 8.55561 4.27534 8.78299 4.27534C9.18902 4.27534 9.53009 3.93427 9.53009 3.51199C9.53009 3.28461 9.70875 3.10596 9.93613 3.10596H17.1961C17.4234 3.10596 17.6021 3.28461 17.6021 3.51199C17.5858 3.93427 17.9107 4.27534 18.3167 4.27534C18.5441 4.27534 18.7227 4.454 18.7227 4.68138V19.6885C18.7227 19.8184 18.6578 19.9646 18.5441 20.0295C18.4629 20.0945 18.3492 20.0945 18.2355 20.0783C17.797 20.0945 17.4884 20.4031 17.4884 20.8416C17.4722 21.0365 17.3097 21.2152 17.0824 21.2152ZM10.4721 20.4356H16.7413C16.9037 19.8671 17.3585 19.4124 17.9432 19.3149V5.02245C17.4234 4.89251 17.0012 4.454 16.855 3.91803H10.2934C10.1473 4.454 9.72499 4.86003 9.20527 5.02245V19.3149C9.82244 19.4124 10.3097 19.8509 10.4721 20.4356Z" fill="#080808"/>
<path fill-rule="evenodd" clip-rule="evenodd" d="M13.5747 14.8488C12.113 14.8488 10.9111 13.6631 10.9111 12.2014C10.9111 10.7397 12.113 9.5378 13.5747 9.5378C15.0365 9.5378 16.2221 10.7397 16.2221 12.2014C16.2058 13.6306 15.0202 14.8488 13.5747 14.8488ZM13.5747 10.3336C12.5353 10.3336 11.707 11.1619 11.707 12.2014C11.707 13.2409 12.5353 14.0692 13.5747 14.0692C14.6142 14.0692 15.4425 13.2409 15.4425 12.2014C15.4263 11.1619 14.5817 10.3336 13.5747 10.3336ZM13.5747 19.6075C12.7139 19.6075 12.0156 18.9091 12.0156 18.0483C12.0156 17.1875 12.7139 16.4891 13.5747 16.4891C14.4355 16.4891 15.1339 17.1875 15.1339 18.0483C15.1014 18.9091 14.4355 19.6075 13.5747 19.6075ZM13.5747 17.3012C13.1525 17.3012 12.8114 17.6423 12.8114 18.0646C12.8114 18.5031 13.1525 18.8279 13.5747 18.8279C13.997 18.8279 14.3381 18.5031 14.3381 18.0646C14.3381 17.6423 13.9808 17.3012 13.5747 17.3012ZM13.5747 7.8487C12.7139 7.8487 12.0156 7.15031 12.0156 6.30576C12.0156 5.44496 12.7139 4.74658 13.5747 4.74658C14.4355 4.74658 15.1339 5.44496 15.1339 6.30576C15.1339 7.15031 14.4355 7.8487 13.5747 7.8487ZM13.5747 5.55865C13.1525 5.55865 12.8114 5.89972 12.8114 6.322C12.8114 6.76052 13.1525 7.08535 13.5747 7.08535C13.997 7.08535 14.3381 6.76052 14.3381 6.322C14.3381 5.89972 13.9808 5.55865 13.5747 5.55865Z" fill="#080808"/>
<path fill-rule="evenodd" clip-rule="evenodd" d="M18.5445 26.0062H3.47244C3.24506 26.0062 3.06641 25.8276 3.06641 25.6002V3.90164C3.06641 3.67426 3.24506 3.49561 3.47244 3.49561H6.03859C6.26597 3.49561 6.44462 3.67426 6.44462 3.90164C6.44462 4.11278 6.26597 4.27519 6.03859 4.27519H3.86224V25.2266H18.1385V23.0665C18.1385 22.8392 18.3171 22.6605 18.5445 22.6605C18.7719 22.6605 18.9343 22.8392 18.9343 23.0665V25.6327C18.9343 25.8276 18.7556 26.0062 18.5445 26.0062Z" fill="#080808"/>
<path fill-rule="evenodd" clip-rule="evenodd" d="M15.9618 28.6049H0.906036C0.678656 28.6049 0.5 28.4262 0.5 28.1989V6.43533C0.5 6.20795 0.678656 6.0293 0.906036 6.0293H3.47218C3.69956 6.0293 3.87822 6.20795 3.87822 6.43533C3.87822 6.66271 3.69956 6.84137 3.47218 6.84137H1.31207V27.8091H15.572V25.6327C15.572 25.4053 15.7507 25.2267 15.9781 25.2267C16.2055 25.2267 16.3841 25.4053 16.3841 25.6327V28.1989C16.3679 28.4262 16.1892 28.6049 15.9618 28.6049Z" fill="#080808"/>
</svg>
