<svg width="24" height="26" viewBox="0 0 24 26" fill="none" xmlns="http://www.w3.org/2000/svg">
<g clip-path="url(#clip0_4989_4488)">
<path d="M15.7107 17.3157C18.371 13.1412 18.0366 13.662 18.1133 13.5532C19.0818 12.1871 19.5938 10.5792 19.5938 8.90332C19.5938 4.45898 15.9873 0.797852 11.5371 0.797852C7.10146 0.797852 3.48047 4.45176 3.48047 8.90332C3.48047 10.5781 4.00313 12.2281 5.00342 13.6126L7.36338 17.3157C4.84019 17.7035 0.550781 18.859 0.550781 21.4033C0.550781 22.3308 1.15615 23.6526 4.04014 24.6826C6.05391 25.4018 8.71636 25.7979 11.5371 25.7979C16.8118 25.7979 22.5234 24.31 22.5234 21.4033C22.5234 18.8585 18.2391 17.7042 15.7107 17.3157ZM6.227 12.8069C6.21895 12.7943 6.21053 12.782 6.20176 12.7699C5.36938 11.6248 4.94531 10.2676 4.94531 8.90332C4.94531 5.24033 7.89482 2.2627 11.5371 2.2627C15.1718 2.2627 18.1289 5.24165 18.1289 8.90332C18.1289 10.2698 17.7128 11.5809 16.9255 12.6958C16.8549 12.7889 17.223 12.217 11.5371 21.1391L6.227 12.8069ZM11.5371 24.333C5.77568 24.333 2.01562 22.6395 2.01562 21.4033C2.01562 20.5725 3.94766 19.2063 8.22891 18.6738L10.9194 22.8956C10.9856 22.9995 11.0769 23.0849 11.1848 23.1442C11.2928 23.2034 11.4139 23.2344 11.5371 23.2344C11.6602 23.2344 11.7813 23.2034 11.8893 23.1442C11.9972 23.0849 12.0885 22.9995 12.1547 22.8956L14.8452 18.6738C19.1265 19.2063 21.0586 20.5725 21.0586 21.4033C21.0586 22.629 17.3324 24.333 11.5371 24.333Z" fill="#080808"/>
<path d="M11.5371 5.24121C9.51782 5.24121 7.875 6.88403 7.875 8.90332C7.875 10.9226 9.51782 12.5654 11.5371 12.5654C13.5564 12.5654 15.1992 10.9226 15.1992 8.90332C15.1992 6.88403 13.5564 5.24121 11.5371 5.24121ZM11.5371 11.1006C10.3255 11.1006 9.33984 10.1149 9.33984 8.90332C9.33984 7.69175 10.3255 6.70605 11.5371 6.70605C12.7487 6.70605 13.7344 7.69175 13.7344 8.90332C13.7344 10.1149 12.7487 11.1006 11.5371 11.1006Z" fill="#080808"/>
</g>
<defs>
<clipPath id="clip0_4989_4488">
<rect width="23" height="26" fill="white" transform="translate(0.5)"/>
</clipPath>
</defs>
</svg>
