<svg width="30" height="26" viewBox="0 0 30 26" fill="none" xmlns="http://www.w3.org/2000/svg">
<g clip-path="url(#clip0_4989_4491)">
<path d="M29.2492 14.4392L23.7587 0.652804C23.731 0.583146 23.6898 0.519629 23.6375 0.465879C23.5853 0.412129 23.5229 0.369199 23.4541 0.339541C23.3852 0.309882 23.3112 0.294076 23.2363 0.293025C23.1613 0.291974 23.0869 0.305698 23.0172 0.333414L0.742564 9.20299C0.651736 9.24225 0.572944 9.30489 0.514224 9.38453C0.423321 9.43173 0.346978 9.50279 0.293378 9.59008C0.239778 9.67737 0.210942 9.7776 0.209961 9.88002V24.7221C0.209961 24.8735 0.270104 25.0187 0.377159 25.1258C0.484214 25.2328 0.629412 25.293 0.780811 25.293H24.7565C24.9079 25.293 25.0531 25.2328 25.1602 25.1258C25.2672 25.0187 25.3274 24.8735 25.3274 24.7221V16.6161L28.9306 15.1809C29.0002 15.1532 29.0637 15.1119 29.1174 15.0596C29.1711 15.0073 29.2139 14.9449 29.2435 14.8761C29.2731 14.8072 29.2889 14.7332 29.2898 14.6582C29.2908 14.5832 29.277 14.5088 29.2492 14.4392ZM24.1857 24.1513H1.35166V10.4509H24.1857V24.1513ZM9.73459 9.31203L19.2929 5.50332C19.7151 5.94705 20.2226 6.30081 20.785 6.54331C21.3475 6.78582 21.9531 6.91207 22.5656 6.91446L23.5189 9.31203H9.73459ZM25.3274 15.3899V9.88002C25.3274 9.72862 25.2672 9.58343 25.1602 9.47637C25.0531 9.36932 24.9079 9.30917 24.7565 9.30917H24.7474L23.5377 6.27111C23.5244 6.24576 23.5087 6.22169 23.4909 6.19918C23.4613 6.06624 23.3846 5.94849 23.275 5.8677C23.1653 5.7869 23.0301 5.74851 22.8944 5.75963C22.3276 5.8113 21.7569 5.72045 21.2342 5.49533C20.7115 5.27021 20.2533 4.91797 19.9014 4.47065C19.8154 4.36447 19.6938 4.29303 19.5592 4.26953C19.4246 4.24602 19.286 4.27204 19.169 4.34278C19.1419 4.34601 19.115 4.35096 19.0885 4.35762L7.41922 9.00434C7.34933 9.03173 7.2856 9.0728 7.23178 9.12515C7.17797 9.17749 7.13515 9.24006 7.10583 9.30917H3.56199L22.9092 1.60555L27.9778 14.3327L25.3274 15.3899Z" fill="#080808"/>
<path d="M2.90075 20.2977C3.44624 20.4589 3.94279 20.7539 4.34526 21.1559C4.74773 21.5579 5.04336 22.054 5.20527 22.5993C5.24042 22.7171 5.31262 22.8203 5.41114 22.8938C5.50967 22.9672 5.62926 23.0069 5.75215 23.0069C5.78177 23.005 5.81118 23.0007 5.84006 22.9938C5.86567 23.0011 5.89186 23.0064 5.91826 23.0098H19.6187C19.6422 23.0067 19.6655 23.0019 19.6883 22.9955C19.8253 23.0288 19.9698 23.0064 20.0903 22.9331C20.2107 22.8598 20.297 22.7417 20.3304 22.6048L20.3311 22.6016C20.4926 22.0558 20.788 21.559 21.1905 21.1565C21.593 20.754 22.0898 20.4586 22.6356 20.2971C22.7657 20.2573 22.877 20.1718 22.9489 20.0564C23.0209 19.941 23.0487 19.8035 23.0272 19.6692C23.0348 19.6414 23.0404 19.6132 23.0438 19.5847V15.0179C23.0404 14.9893 23.0347 14.961 23.0266 14.9334C23.0483 14.7991 23.0206 14.6614 22.9486 14.546C22.8766 14.4306 22.7652 14.3451 22.635 14.3055C22.0892 14.144 21.5925 13.8485 21.1901 13.4459C20.7878 13.0433 20.4927 12.5463 20.3317 12.0004C20.2917 11.8695 20.2055 11.7575 20.0891 11.6855C19.9727 11.6134 19.8341 11.5862 19.6992 11.6088C19.6728 11.6014 19.6459 11.5961 19.6187 11.5928H5.91826C5.8895 11.5962 5.86105 11.6019 5.83321 11.6099C5.69892 11.5885 5.56142 11.6164 5.44603 11.6883C5.33065 11.7603 5.24515 11.8715 5.20527 12.0015C5.0437 12.5472 4.74822 13.0439 4.34573 13.4463C3.94324 13.8487 3.44651 14.144 2.90075 14.3055C2.77069 14.3452 2.6594 14.4307 2.58742 14.5461C2.51545 14.6615 2.48765 14.7991 2.50915 14.9334C2.50172 14.9611 2.49638 14.9894 2.49316 15.0179V19.5847C2.49645 19.6115 2.5018 19.638 2.50915 19.664C2.48651 19.7992 2.51375 19.9379 2.58578 20.0545C2.65782 20.1711 2.76975 20.2575 2.90075 20.2977ZM3.63486 15.2496C4.20212 15.0218 4.7174 14.6815 5.14965 14.2493C5.58191 13.817 5.9222 13.3017 6.15003 12.7345H19.3863C19.6143 13.3017 19.9547 13.817 20.387 14.2493C20.8194 14.6815 21.3347 15.0218 21.9021 15.2496V19.3529C21.335 19.581 20.8198 19.9214 20.3876 20.3536C19.9554 20.7858 19.615 21.301 19.3869 21.8681H6.15003C5.92194 21.301 5.58155 20.7858 5.14933 20.3536C4.71711 19.9214 4.20197 19.581 3.63486 19.3529V15.2496Z" fill="#080808"/>
<path d="M12.7684 20.7262C14.6601 20.7262 16.1935 19.1927 16.1935 17.3011C16.1935 15.4094 14.6601 13.876 12.7684 13.876C10.8768 13.876 9.34334 15.4094 9.34334 17.3011C9.34519 19.1919 10.8776 20.7243 12.7684 20.7262ZM12.7684 15.0177C14.0295 15.0177 15.0518 16.04 15.0518 17.3011C15.0518 18.5622 14.0295 19.5845 12.7684 19.5845C11.5074 19.5845 10.485 18.5622 10.485 17.3011C10.485 16.04 11.5074 15.0177 12.7684 15.0177ZM6.48909 18.1574C6.96197 18.1574 7.34536 17.774 7.34536 17.3011C7.34536 16.8282 6.96197 16.4448 6.48909 16.4448C6.01621 16.4448 5.63281 16.8282 5.63281 17.3011C5.63281 17.774 6.01621 18.1574 6.48909 18.1574ZM6.48909 17.0157C6.56479 17.0157 6.63739 17.0457 6.69091 17.0992C6.74444 17.1528 6.77451 17.2254 6.77451 17.3011C6.77451 17.3768 6.74444 17.4494 6.69091 17.5029C6.63739 17.5564 6.56479 17.5865 6.48909 17.5865C6.41339 17.5865 6.34079 17.5564 6.28726 17.5029C6.23373 17.4494 6.20366 17.3768 6.20366 17.3011C6.20366 17.2254 6.23373 17.1528 6.28726 17.0992C6.34079 17.0457 6.41339 17.0157 6.48909 17.0157ZM19.0478 18.1574C19.5207 18.1574 19.9041 17.774 19.9041 17.3011C19.9041 16.8282 19.5207 16.4448 19.0478 16.4448C18.5749 16.4448 18.1915 16.8282 18.1915 17.3011C18.1915 17.774 18.5749 18.1574 19.0478 18.1574ZM19.0478 17.0157C19.1235 17.0157 19.1961 17.0457 19.2496 17.0992C19.3031 17.1528 19.3332 17.2254 19.3332 17.3011C19.3332 17.3768 19.3031 17.4494 19.2496 17.5029C19.1961 17.5564 19.1235 17.5865 19.0478 17.5865C18.9721 17.5865 18.8995 17.5564 18.846 17.5029C18.7924 17.4494 18.7624 17.3768 18.7624 17.3011C18.7624 17.2254 18.7924 17.1528 18.846 17.0992C18.8995 17.0457 18.9721 17.0157 19.0478 17.0157Z" fill="#080808"/>
</g>
<defs>
<clipPath id="clip0_4989_4491">
<rect width="30" height="26" fill="white"/>
</clipPath>
</defs>
</svg>
