<svg width="22" height="27" viewBox="0 0 22 27" fill="none" xmlns="http://www.w3.org/2000/svg">
<g clip-path="url(#clip0_4989_4484)">
<path d="M19.3286 3.59131H16.663C16.5478 3.59131 16.4373 3.63836 16.3559 3.72214C16.2745 3.8059 16.2287 3.91952 16.2287 4.03799C16.2287 4.15646 16.2745 4.27008 16.3559 4.35384C16.4373 4.43762 16.5478 4.48467 16.663 4.48467H19.3286C20.0469 4.48467 20.6314 5.08547 20.6314 5.82474V24.5677C20.6314 25.3065 20.0469 25.9078 19.3286 25.9078H2.6714C1.9531 25.9078 1.36856 25.3065 1.36856 24.5677V5.82474C1.36856 5.08547 1.9531 4.48467 2.6714 4.48467H5.337C5.45218 4.48467 5.56264 4.43762 5.64409 4.35384C5.72552 4.27008 5.77128 4.15646 5.77128 4.03799C5.77128 3.91952 5.72552 3.8059 5.64409 3.72214C5.56264 3.63836 5.45218 3.59131 5.337 3.59131H2.6714C1.47409 3.59131 0.5 4.59322 0.5 5.82474V24.5677C0.5 25.7992 1.47409 26.8012 2.6714 26.8012H19.3286C20.5259 26.8012 21.5 25.7992 21.5 24.5677V5.82474C21.5 4.59322 20.5259 3.59131 19.3286 3.59131Z" fill="#545873"/>
<path d="M3.53965 5.28967C2.82135 5.28967 2.23682 5.89046 2.23682 6.62973V23.6745C2.23682 24.4132 2.82135 25.0144 3.53965 25.0144H10.9997C11.1149 25.0144 11.2253 24.9674 11.3068 24.8836C11.3882 24.7998 11.434 24.6862 11.434 24.5678C11.434 24.4494 11.3882 24.3357 11.3068 24.2519C11.2253 24.1681 11.1149 24.1212 10.9997 24.1212H3.53965C3.30036 24.1212 3.10538 23.9205 3.10538 23.6745V6.62973C3.10538 6.3836 3.30036 6.18304 3.53965 6.18304H18.4597C18.699 6.18304 18.894 6.3836 18.894 6.62973V23.6745C18.894 23.9205 18.699 24.1212 18.4597 24.1212H12.9131C12.7979 24.1212 12.6875 24.1681 12.6061 24.2519C12.5246 24.3357 12.4788 24.4494 12.4788 24.5678C12.4788 24.6862 12.5246 24.7998 12.6061 24.8836C12.6875 24.9674 12.7979 25.0144 12.9131 25.0144H18.4597C19.178 25.0144 19.7626 24.4132 19.7626 23.6745V6.62973C19.7626 5.8909 19.178 5.28967 18.4597 5.28967H15.2799C15.3286 5.14896 15.3598 5.00022 15.3598 4.84298V3.23312C15.3598 2.4943 14.7753 1.89306 14.057 1.89306H13.0873C12.9509 0.827711 12.072 0 10.9997 0C9.92746 0 9.04848 0.827711 8.91212 1.89306H7.94237C7.22407 1.89306 6.63953 2.49385 6.63953 3.23312V4.84298C6.63953 5.00022 6.6708 5.14896 6.71944 5.28967H3.53965ZM10.9997 0.893374C11.5925 0.893374 12.0906 1.32175 12.2157 1.89306H9.78371C9.84651 1.60949 10.001 1.35622 10.2218 1.17463C10.4427 0.993048 10.7169 0.893893 10.9997 0.893374ZM7.50809 4.84298V3.23312C7.50809 2.987 7.70264 2.78643 7.94237 2.78643H14.057C14.2967 2.78643 14.4913 2.987 14.4913 3.23312V4.84298C14.4913 5.0891 14.2967 5.28967 14.057 5.28967H7.94237C7.70264 5.28967 7.50809 5.0891 7.50809 4.84298Z" fill="#545873"/>
<path d="M8.57404 9.02727C8.49261 8.94353 8.38217 8.89648 8.26701 8.89648C8.15185 8.89648 8.04141 8.94353 7.95997 9.02727L5.7686 11.2808L5.0477 10.5393C5.0076 10.4967 4.95966 10.4627 4.90667 10.4393C4.85366 10.4159 4.79667 10.4037 4.739 10.4032C4.68135 10.4027 4.62416 10.4141 4.57081 10.4366C4.51745 10.459 4.46899 10.4923 4.42824 10.5342C4.38749 10.5762 4.35529 10.6261 4.33349 10.681C4.31169 10.7359 4.30074 10.7947 4.30129 10.8541C4.30182 10.9134 4.31385 10.9719 4.33664 11.0265C4.35944 11.0809 4.39255 11.1302 4.43406 11.1714L5.46157 12.2283C5.54301 12.312 5.65345 12.359 5.7686 12.359C5.88375 12.359 5.99419 12.312 6.07563 12.2283L8.57404 9.65889C8.65546 9.57512 8.7012 9.46153 8.7012 9.34309C8.7012 9.22463 8.65546 9.11104 8.57404 9.02727ZM8.57404 13.5513C8.49261 13.4676 8.38217 13.4205 8.26701 13.4205C8.15185 13.4205 8.04141 13.4676 7.95997 13.5513L5.7686 15.8054L5.0477 15.0638C5.0076 15.0212 4.95966 14.9871 4.90667 14.9638C4.85366 14.9404 4.79667 14.9282 4.739 14.9276C4.68135 14.9272 4.62416 14.9385 4.57081 14.961C4.51745 14.9836 4.46899 15.0167 4.42824 15.0587C4.38749 15.1007 4.35529 15.1505 4.33349 15.2055C4.31169 15.2604 4.30074 15.3192 4.30129 15.3785C4.30182 15.4378 4.31385 15.4965 4.33664 15.5509C4.35944 15.6054 4.39255 15.6547 4.43406 15.6958L5.46157 16.7527C5.50181 16.7943 5.54964 16.8274 5.60233 16.8499C5.65503 16.8725 5.71153 16.8841 5.7686 16.8841C5.82567 16.8841 5.88217 16.8725 5.93487 16.8499C5.98756 16.8274 6.0354 16.7943 6.07563 16.7527L8.57404 14.183C8.65546 14.0992 8.7012 13.9856 8.7012 13.8671C8.7012 13.7487 8.65546 13.6351 8.57404 13.5513ZM7.95997 18.0758L5.7686 20.3298L5.0477 19.5883C5.0076 19.5456 4.95966 19.5117 4.90667 19.4883C4.85366 19.4649 4.79667 19.4526 4.739 19.4522C4.68135 19.4516 4.62416 19.4631 4.57081 19.4856C4.51745 19.508 4.46899 19.5413 4.42824 19.5832C4.38749 19.6252 4.35529 19.6751 4.33349 19.73C4.31169 19.7849 4.30074 19.8437 4.30129 19.9031C4.30182 19.9624 4.31385 20.0209 4.33664 20.0755C4.35944 20.1299 4.39255 20.1791 4.43406 20.2204L5.46157 21.2772C5.50181 21.3189 5.54964 21.3519 5.60233 21.3744C5.65503 21.3969 5.71153 21.4086 5.7686 21.4086C5.82567 21.4086 5.88217 21.3969 5.93487 21.3744C5.98756 21.3519 6.0354 21.3189 6.07563 21.2772L8.57404 18.7074C8.61552 18.6663 8.64861 18.6169 8.67137 18.5625C8.69412 18.5079 8.7061 18.4493 8.70661 18.39C8.70711 18.3307 8.69612 18.2719 8.67429 18.217C8.65245 18.1621 8.6202 18.1122 8.57943 18.0703C8.53865 18.0283 8.49016 17.9952 8.43679 17.9727C8.38342 17.9502 8.32623 17.9389 8.26857 17.9394C8.21091 17.94 8.15392 17.9523 8.10094 17.9757C8.04795 17.9992 8.00003 18.0332 7.95997 18.0758ZM10.8814 11.0744H17.2574C17.3726 11.0744 17.4831 11.0274 17.5645 10.9436C17.646 10.8598 17.6917 10.7462 17.6917 10.6278C17.6917 10.5093 17.646 10.3957 17.5645 10.3119C17.4831 10.2281 17.3726 10.1811 17.2574 10.1811H10.8814C10.7662 10.1811 10.6557 10.2281 10.5743 10.3119C10.4928 10.3957 10.4471 10.5093 10.4471 10.6278C10.4471 10.7462 10.4928 10.8598 10.5743 10.9436C10.6557 11.0274 10.7662 11.0744 10.8814 11.0744ZM10.8814 15.5985H17.2574C17.3726 15.5985 17.4831 15.5514 17.5645 15.4676C17.646 15.3839 17.6917 15.2703 17.6917 15.1518C17.6917 15.0334 17.646 14.9198 17.5645 14.8359C17.4831 14.7521 17.3726 14.7052 17.2574 14.7052H10.8814C10.7662 14.7052 10.6557 14.7521 10.5743 14.8359C10.4928 14.9198 10.4471 15.0334 10.4471 15.1518C10.4471 15.2703 10.4928 15.3839 10.5743 15.4676C10.6557 15.5514 10.7662 15.5985 10.8814 15.5985ZM10.8814 20.1234H17.2574C17.3726 20.1234 17.4831 20.0763 17.5645 19.9926C17.646 19.9088 17.6917 19.7952 17.6917 19.6767C17.6917 19.5582 17.646 19.4446 17.5645 19.3609C17.4831 19.2771 17.3726 19.23 17.2574 19.23H10.8814C10.7662 19.23 10.6557 19.2771 10.5743 19.3609C10.4928 19.4446 10.4471 19.5582 10.4471 19.6767C10.4471 19.7952 10.4928 19.9088 10.5743 19.9926C10.6557 20.0763 10.7662 20.1234 10.8814 20.1234Z" fill="#545873"/>
</g>
<defs>
<clipPath id="clip0_4989_4484">
<rect width="21" height="27" fill="white" transform="translate(0.5)"/>
</clipPath>
</defs>
</svg>
