<svg width="17" height="26" viewBox="0 0 17 26" fill="none" xmlns="http://www.w3.org/2000/svg">
<g clip-path="url(#clip0_4989_4480)">
<path d="M14.9749 0.797852H1.6416C0.952442 0.797852 0.391602 1.35869 0.391602 2.04785C0.391602 2.73701 0.952442 3.29785 1.6416 3.29785H14.975C15.6641 3.29785 16.225 2.73701 16.225 2.04785C16.225 1.35869 15.6641 0.797852 14.9749 0.797852ZM14.9749 2.4645H1.6416C1.41201 2.4645 1.22495 2.27783 1.22495 2.04785C1.22495 1.81787 1.41201 1.6312 1.6416 1.6312H14.975C15.2045 1.6312 15.3916 1.81787 15.3916 2.04785C15.3916 2.27783 15.2045 2.4645 14.9749 2.4645ZM14.9749 23.2979H1.6416C0.952442 23.2979 0.391602 23.8587 0.391602 24.5479C0.391602 25.237 0.952442 25.7979 1.6416 25.7979H14.975C15.6641 25.7979 16.225 25.237 16.225 24.5479C16.225 23.8587 15.6641 23.2979 14.9749 23.2979ZM14.9749 24.9645H1.6416C1.41201 24.9645 1.22495 24.7778 1.22495 24.5479C1.22495 24.3179 1.41201 24.1312 1.6416 24.1312H14.975C15.2045 24.1312 15.3916 24.3179 15.3916 24.5479C15.3916 24.7778 15.2045 24.9645 14.9749 24.9645Z" fill="#080808"/>
<path d="M11.2749 11.7485C13.3907 9.63272 14.5557 6.81978 14.5557 3.82813V2.87856C14.5557 2.82384 14.5449 2.76966 14.524 2.7191C14.5031 2.66854 14.4724 2.6226 14.4337 2.58391C14.395 2.54521 14.349 2.51452 14.2985 2.49359C14.2479 2.47266 14.1937 2.46189 14.139 2.46191H2.47231C2.41759 2.46189 2.36341 2.47266 2.31285 2.49359C2.26229 2.51452 2.21635 2.54521 2.17766 2.58391C2.13896 2.6226 2.10827 2.66854 2.08734 2.7191C2.06641 2.76966 2.05564 2.82384 2.05566 2.87856V3.82813C2.05566 6.82022 3.22065 9.63272 5.33608 11.7485L5.75483 12.1673C6.0519 12.4644 6.22231 12.8752 6.22231 13.2952C6.22231 13.7152 6.0519 14.1261 5.75522 14.4231L5.33647 14.8419C3.22065 16.9577 2.05566 19.7702 2.05566 22.7623V23.7119C2.05564 23.7666 2.06641 23.8208 2.08734 23.8713C2.10827 23.9219 2.13896 23.9678 2.17766 24.0065C2.21635 24.0452 2.26229 24.0759 2.31285 24.0968C2.36341 24.1178 2.41759 24.1285 2.47231 24.1285H14.139C14.1937 24.1285 14.2479 24.1178 14.2984 24.0968C14.349 24.0759 14.3949 24.0452 14.4336 24.0065C14.4723 23.9678 14.503 23.9219 14.5239 23.8713C14.5449 23.8208 14.5556 23.7666 14.5556 23.7119V22.7623C14.5556 19.7707 13.3906 16.9577 11.2748 14.8419L10.8561 14.4231C10.5548 14.1219 10.389 13.7215 10.389 13.2952C10.389 12.8689 10.5548 12.4686 10.8561 12.1673L11.2749 11.7485ZM10.2669 11.5781C9.80815 12.0365 9.55567 12.646 9.55567 13.2952C9.55567 13.9444 9.80815 14.554 10.2669 15.0123L10.6856 15.4311C12.644 17.3894 13.7223 19.9931 13.7223 22.7623V23.2952H2.88901V22.7623C2.88901 19.9927 3.96733 17.3894 5.92524 15.4311L6.34399 15.0123C6.80317 14.554 7.05566 13.9439 7.05566 13.2952C7.05566 12.6465 6.80317 12.0365 6.34443 11.5781L5.92568 11.1594C3.96733 9.20103 2.88901 6.59727 2.88901 3.82813V3.29522H13.7224V3.82813C13.7224 6.59732 12.644 9.20103 10.6857 11.1594L10.2669 11.5781Z" fill="#080808"/>
<path d="M11.829 7.81439C11.787 7.70858 11.6436 7.46146 11.2245 7.46146C9.05946 7.46146 8.09486 6.99769 7.71234 6.72103C7.23524 6.37562 6.62318 6.28519 6.07357 6.47977C5.54901 6.66517 5.16483 7.07767 5.02025 7.61102C4.98275 7.74979 4.97606 7.83978 4.97606 7.83978C4.96981 7.92186 4.98773 8.01063 5.02816 8.0827C5.41859 8.77479 5.86898 9.50477 6.51732 10.1531L6.93563 10.5719C7.55189 11.1873 7.89105 12.0064 7.89105 12.8781C7.89103 12.9328 7.9018 12.987 7.92273 13.0376C7.94366 13.0881 7.97435 13.1341 8.01304 13.1728C8.05174 13.2115 8.09768 13.2421 8.14823 13.2631C8.19879 13.284 8.25298 13.2948 8.3077 13.2948C8.36242 13.2948 8.41661 13.284 8.46717 13.2631C8.51773 13.2421 8.56367 13.2115 8.60236 13.1728C8.64106 13.1341 8.67174 13.0881 8.69268 13.0376C8.71361 12.987 8.72437 12.9328 8.72435 12.8781C8.72435 12.0069 9.06351 11.1877 9.67933 10.5719L10.0985 10.1527C10.2015 10.0502 10.3356 9.92352 10.4831 9.78519C11.5603 8.7723 12.0132 8.27938 11.829 7.81439ZM9.91156 9.17816C9.75741 9.32357 9.61654 9.45609 9.50907 9.56356L9.08988 9.98275C8.77079 10.3008 8.50639 10.6694 8.30736 11.0736C8.10836 10.6694 7.84397 10.3008 7.52484 9.98275L7.10648 9.564C6.59481 9.05193 6.22025 8.48816 5.83065 7.80857C5.93358 7.46067 6.20023 7.31898 6.3515 7.26522C6.64232 7.16229 6.96859 7.21106 7.22357 7.39607C7.75438 7.78025 8.80106 8.23314 10.8061 8.289C10.5486 8.57899 10.1445 8.95941 9.91156 9.17816ZM12.8624 22.0123C12.7578 20.6615 12.2162 20.1006 11.5895 19.4506C11.5049 19.3627 11.4166 19.2715 11.3262 19.1748C10.8028 18.6156 10.0637 18.2948 9.2974 18.2948H7.31781C6.55199 18.2948 5.81239 18.6157 5.28905 19.1748C5.19862 19.2715 5.11073 19.3623 5.02611 19.4502C4.39901 20.1002 3.85736 20.6615 3.75321 22.0127C3.74875 22.07 3.75618 22.1276 3.77504 22.1819C3.79389 22.2362 3.82377 22.286 3.86278 22.3282C3.90185 22.3702 3.94917 22.4038 4.00179 22.4267C4.0544 22.4497 4.11119 22.4615 4.16859 22.4615H12.4469C12.5043 22.4615 12.5612 22.4496 12.6138 22.4266C12.6664 22.4036 12.7137 22.3699 12.7527 22.3278C12.7916 22.2855 12.8215 22.2357 12.8403 22.1814C12.8592 22.1272 12.8667 22.0696 12.8624 22.0123ZM4.6432 21.6282C4.78446 20.9007 5.12113 20.5523 5.62611 20.029C5.71733 19.9346 5.80789 19.8396 5.89779 19.744C6.26405 19.3523 6.78153 19.1282 7.31781 19.1282H9.2974C9.83407 19.1282 10.3516 19.3527 10.7178 19.7436C10.8116 19.8444 10.9024 19.9382 10.9903 20.0294C11.4949 20.5528 11.8311 20.9011 11.9728 21.6282H4.6432ZM8.2953 14.1282C8.24058 14.1281 8.18639 14.1389 8.13583 14.1598C8.08527 14.1808 8.03933 14.2115 8.00064 14.2501C7.96195 14.2888 7.93126 14.3348 7.91033 14.3853C7.88939 14.4359 7.87863 14.4901 7.87865 14.5448V14.9615C7.87863 15.0162 7.88939 15.0704 7.91033 15.1209C7.93126 15.1715 7.96195 15.2174 8.00064 15.2561C8.03933 15.2948 8.08527 15.3255 8.13583 15.3464C8.18639 15.3674 8.24058 15.3781 8.2953 15.3781C8.35002 15.3781 8.40421 15.3674 8.45477 15.3464C8.50533 15.3255 8.55127 15.2948 8.58996 15.2561C8.62865 15.2174 8.65934 15.1715 8.68027 15.1209C8.70121 15.0704 8.71197 15.0162 8.71195 14.9615V14.5448C8.71197 14.4901 8.70121 14.4359 8.68027 14.3853C8.65934 14.3348 8.62865 14.2888 8.58996 14.2501C8.55127 14.2115 8.50533 14.1808 8.45477 14.1598C8.40421 14.1389 8.35002 14.1281 8.2953 14.1282ZM8.2953 16.2115C8.24058 16.2114 8.18639 16.2222 8.13583 16.2431C8.08527 16.2641 8.03933 16.2948 8.00064 16.3334C7.96195 16.3721 7.93126 16.4181 7.91033 16.4686C7.88939 16.5192 7.87863 16.5734 7.87865 16.6281V17.0448C7.87863 17.0995 7.88939 17.1537 7.91033 17.2042C7.93126 17.2548 7.96195 17.3007 8.00064 17.3394C8.03933 17.3781 8.08527 17.4088 8.13583 17.4297C8.18639 17.4507 8.24058 17.4614 8.2953 17.4614C8.35002 17.4614 8.40421 17.4507 8.45477 17.4297C8.50533 17.4088 8.55127 17.3781 8.58996 17.3394C8.62865 17.3007 8.65934 17.2548 8.68027 17.2042C8.70121 17.1537 8.71197 17.0995 8.71195 17.0448V16.6281C8.71196 16.5734 8.70119 16.5192 8.68026 16.4686C8.65933 16.4181 8.62864 16.3722 8.58994 16.3335C8.55125 16.2948 8.50532 16.2641 8.45476 16.2431C8.4042 16.2222 8.35002 16.2114 8.2953 16.2115Z" fill="#080808"/>
</g>
<defs>
<clipPath id="clip0_4989_4480">
<rect width="17" height="26" fill="white"/>
</clipPath>
</defs>
</svg>
