<svg width="20" height="20" viewBox="0 0 20 20" fill="none" xmlns="http://www.w3.org/2000/svg">
<path d="M9.82482 5.71682L5.49354 8.38221C5.4295 8.4181 5.3791 8.47414 5.35018 8.54162C5.32126 8.6091 5.31544 8.68424 5.33362 8.75537C5.35377 8.82744 5.3976 8.89062 5.45804 8.93474C5.51848 8.97886 5.59201 9.00135 5.66679 8.99859H6.66632V12.3303H5.99997C5.91161 12.3303 5.82686 12.3654 5.76438 12.4279C5.7019 12.4904 5.66679 12.5751 5.66679 12.6635V13.9962C5.66679 14.0846 5.7019 14.1693 5.76438 14.2318C5.82686 14.2943 5.91161 14.3294 5.99997 14.3294H13.9962C14.0845 14.3294 14.1693 14.2943 14.2318 14.2318C14.2942 14.1693 14.3293 14.0846 14.3293 13.9962V12.6635C14.3293 12.5751 14.2942 12.4904 14.2318 12.4279C14.1693 12.3654 14.0845 12.3303 13.9962 12.3303H13.3298V8.99859H14.3293C14.4041 9.00135 14.4777 8.97886 14.5381 8.93474C14.5985 8.89062 14.6424 8.82744 14.6625 8.75537C14.6819 8.68569 14.6781 8.61159 14.6516 8.54428C14.6252 8.47696 14.5775 8.42007 14.5159 8.38221L10.1846 5.71682C10.131 5.68237 10.0685 5.66406 10.0047 5.66406C9.94095 5.66406 9.8785 5.68237 9.82482 5.71682ZM7.33267 8.99859H8.66537V12.3303H7.33267V8.99859ZM9.33172 12.3303V8.99859H10.6644V12.3303H9.33172ZM13.663 13.663H6.33314V12.9967H13.663V13.663ZM12.6635 12.3303H11.3308V8.99859H12.6635V12.3303ZM6.8429 8.33224L9.99807 6.38983L13.1532 8.33224H6.8429Z" fill="#696E90"/>
<path d="M9.82482 5.71682L5.49354 8.38221C5.4295 8.4181 5.3791 8.47414 5.35018 8.54162C5.32126 8.6091 5.31544 8.68424 5.33362 8.75537C5.35377 8.82744 5.3976 8.89062 5.45804 8.93474C5.51848 8.97886 5.59201 9.00135 5.66679 8.99859H6.66632V12.3303H5.99997C5.91161 12.3303 5.82686 12.3654 5.76438 12.4279C5.7019 12.4904 5.66679 12.5751 5.66679 12.6635V13.9962C5.66679 14.0846 5.7019 14.1693 5.76438 14.2318C5.82686 14.2943 5.91161 14.3294 5.99997 14.3294H13.9962C14.0845 14.3294 14.1693 14.2943 14.2318 14.2318C14.2942 14.1693 14.3293 14.0846 14.3293 13.9962V12.6635C14.3293 12.5751 14.2942 12.4904 14.2318 12.4279C14.1693 12.3654 14.0845 12.3303 13.9962 12.3303H13.3298V8.99859H14.3293C14.4041 9.00135 14.4777 8.97886 14.5381 8.93474C14.5985 8.89062 14.6424 8.82744 14.6625 8.75537C14.6819 8.68569 14.6781 8.61159 14.6516 8.54428C14.6252 8.47696 14.5775 8.42007 14.5159 8.38221L10.1846 5.71682C10.131 5.68237 10.0685 5.66406 10.0047 5.66406C9.94095 5.66406 9.8785 5.68237 9.82482 5.71682ZM7.33267 8.99859H8.66537V12.3303H7.33267V8.99859ZM9.33172 12.3303V8.99859H10.6644V12.3303H9.33172ZM13.663 13.663H6.33314V12.9967H13.663V13.663ZM12.6635 12.3303H11.3308V8.99859H12.6635V12.3303ZM6.8429 8.33224L9.99807 6.38983L13.1532 8.33224H6.8429Z" fill="black" fill-opacity="0.2"/>
<path d="M17.6611 0.00285367C17.2291 0.0037752 16.8059 0.124661 16.4386 0.352034C16.0713 0.579407 15.7743 0.90433 15.5808 1.29058C15.3874 1.67683 15.305 2.10922 15.3429 2.53955C15.3807 2.96988 15.5374 3.38123 15.7953 3.72775L14.6959 4.82723C13.4132 3.65285 11.7372 3.00148 9.9981 3.00148C8.25902 3.00148 6.583 3.65285 5.30034 4.82723L4.20086 3.72775C4.5536 3.25542 4.71439 2.66702 4.65087 2.08094C4.58736 1.49486 4.30425 0.954575 3.8585 0.568779C3.41276 0.182983 2.83745 -0.0196976 2.24832 0.00151118C1.65919 0.02272 1.09994 0.266245 0.683094 0.683094C0.266245 1.09994 0.02272 1.65919 0.00151118 2.24832C-0.0196976 2.83745 0.182983 3.41276 0.568779 3.8585C0.954575 4.30425 1.49486 4.58736 2.08094 4.65087C2.66702 4.71439 3.25542 4.5536 3.72775 4.20086L4.82723 5.30034C3.65285 6.583 3.00148 8.25902 3.00148 9.9981C3.00148 11.7372 3.65285 13.4132 4.82723 14.6959L3.72775 15.7953C3.25542 15.4426 2.66702 15.2818 2.08094 15.3453C1.49486 15.4088 0.954575 15.692 0.568779 16.1377C0.182983 16.5834 -0.0196976 17.1588 0.00151118 17.7479C0.02272 18.337 0.266245 18.8963 0.683094 19.3131C1.09994 19.73 1.65919 19.9735 2.24832 19.9947C2.83745 20.0159 3.41276 19.8132 3.8585 19.4274C4.30425 19.0416 4.58736 18.5013 4.65087 17.9153C4.71439 17.3292 4.5536 16.7408 4.20086 16.2685L5.30034 15.169C6.583 16.3434 8.25902 16.9947 9.9981 16.9947C11.7372 16.9947 13.4132 16.3434 14.6959 15.169L15.7953 16.2685C15.4426 16.7408 15.2818 17.3292 15.3453 17.9153C15.4088 18.5013 15.692 19.0416 16.1377 19.4274C16.5834 19.8132 17.1588 20.0159 17.7479 19.9947C18.337 19.9735 18.8963 19.73 19.3131 19.3131C19.73 18.8963 19.9735 18.337 19.9947 17.7479C20.0159 17.1588 19.8132 16.5834 19.4274 16.1377C19.0416 15.692 18.5013 15.4088 17.9153 15.3453C17.3292 15.2818 16.7408 15.4426 16.2685 15.7953L15.169 14.6959C16.3434 13.4132 16.9947 11.7372 16.9947 9.9981C16.9947 8.25902 16.3434 6.583 15.169 5.30034L16.2685 4.20086C16.5643 4.42275 16.9087 4.5711 17.2732 4.63367C17.6377 4.69624 18.0118 4.67123 18.3648 4.56071C18.7177 4.45019 19.0393 4.25732 19.303 3.99802C19.5667 3.73872 19.7649 3.42043 19.8814 3.06942C19.9978 2.71841 20.0291 2.34473 19.9727 1.97923C19.9163 1.61374 19.7737 1.2669 19.5569 0.967346C19.34 0.667792 19.055 0.424109 18.7253 0.256408C18.3957 0.0887081 18.0309 0.00179903 17.6611 0.00285367ZM0.669204 2.33508C0.669204 2.0056 0.766905 1.68352 0.949954 1.40957C1.133 1.13562 1.39318 0.922097 1.69758 0.796011C2.00197 0.669925 2.33693 0.636935 2.66007 0.701213C2.98322 0.765491 3.28005 0.92415 3.51303 1.15713C3.74601 1.3901 3.90467 1.68693 3.96894 2.01008C4.03322 2.33323 4.00023 2.66818 3.87415 2.97258C3.74806 3.27698 3.53454 3.53715 3.26059 3.7202C2.98664 3.90325 2.66456 4.00095 2.33508 4.00095C1.89326 4.00095 1.46954 3.82544 1.15713 3.51303C0.844715 3.20062 0.669204 2.7769 0.669204 2.33508ZM2.33508 19.327C2.0056 19.327 1.68352 19.2293 1.40957 19.0462C1.13562 18.8632 0.922097 18.603 0.796011 18.2986C0.669925 17.9942 0.636935 17.6593 0.701213 17.3361C0.765491 17.013 0.92415 16.7162 1.15713 16.4832C1.3901 16.2502 1.68693 16.0915 2.01008 16.0273C2.33323 15.963 2.66818 15.996 2.97258 16.1221C3.27698 16.2481 3.53715 16.4617 3.7202 16.7356C3.90325 17.0096 4.00095 17.3316 4.00095 17.6611C4.00095 17.8799 3.95786 18.0965 3.87415 18.2986C3.79043 18.5007 3.66772 18.6844 3.51303 18.8391C3.35834 18.9938 3.17469 19.1165 2.97258 19.2002C2.77047 19.2839 2.55384 19.327 2.33508 19.327ZM19.327 17.6611C19.327 17.9906 19.2293 18.3127 19.0462 18.5866C18.8632 18.8606 18.603 19.0741 18.2986 19.2002C17.9942 19.3263 17.6593 19.3593 17.3361 19.295C17.013 19.2307 16.7162 19.0721 16.4832 18.8391C16.2502 18.6061 16.0915 18.3093 16.0273 17.9861C15.963 17.663 15.996 17.328 16.1221 17.0236C16.2481 16.7192 16.4617 16.459 16.7356 16.276C17.0096 16.093 17.3316 15.9953 17.6611 15.9953C18.1029 15.9953 18.5267 16.1708 18.8391 16.4832C19.1515 16.7956 19.327 17.2193 19.327 17.6611ZM9.9981 16.3284C8.74608 16.3284 7.52218 15.9572 6.48116 15.2616C5.44015 14.566 4.62877 13.5773 4.14965 12.4206C3.67052 11.2639 3.54516 9.99108 3.78941 8.76312C4.03367 7.53515 4.63658 6.4072 5.52189 5.52189C6.4072 4.63658 7.53515 4.03367 8.76312 3.78941C9.99108 3.54516 11.2639 3.67052 12.4206 4.14965C13.5773 4.62877 14.566 5.44015 15.2616 6.48116C15.9572 7.52218 16.3284 8.74608 16.3284 9.9981C16.3284 11.677 15.6615 13.2872 14.4743 14.4743C13.2872 15.6615 11.677 16.3284 9.9981 16.3284ZM17.6611 4.00095C17.3316 4.00095 17.0096 3.90325 16.7356 3.7202C16.4617 3.53715 16.2481 3.27698 16.1221 2.97258C15.996 2.66818 15.963 2.33323 16.0273 2.01008C16.0915 1.68693 16.2502 1.3901 16.4832 1.15713C16.7162 0.92415 17.013 0.765491 17.3361 0.701213C17.6593 0.636935 17.9942 0.669925 18.2986 0.796011C18.603 0.922097 18.8632 1.13562 19.0462 1.40957C19.2293 1.68352 19.327 2.0056 19.327 2.33508C19.327 2.55384 19.2839 2.77047 19.2002 2.97258C19.1165 3.17469 18.9938 3.35834 18.8391 3.51303C18.6844 3.66772 18.5007 3.79043 18.2986 3.87415C18.0965 3.95786 17.8799 4.00095 17.6611 4.00095Z" fill="#696E90"/>
<path d="M17.6611 0.00285367C17.2291 0.0037752 16.8059 0.124661 16.4386 0.352034C16.0713 0.579407 15.7743 0.90433 15.5808 1.29058C15.3874 1.67683 15.305 2.10922 15.3429 2.53955C15.3807 2.96988 15.5374 3.38123 15.7953 3.72775L14.6959 4.82723C13.4132 3.65285 11.7372 3.00148 9.9981 3.00148C8.25902 3.00148 6.583 3.65285 5.30034 4.82723L4.20086 3.72775C4.5536 3.25542 4.71439 2.66702 4.65087 2.08094C4.58736 1.49486 4.30425 0.954575 3.8585 0.568779C3.41276 0.182983 2.83745 -0.0196976 2.24832 0.00151118C1.65919 0.02272 1.09994 0.266245 0.683094 0.683094C0.266245 1.09994 0.02272 1.65919 0.00151118 2.24832C-0.0196976 2.83745 0.182983 3.41276 0.568779 3.8585C0.954575 4.30425 1.49486 4.58736 2.08094 4.65087C2.66702 4.71439 3.25542 4.5536 3.72775 4.20086L4.82723 5.30034C3.65285 6.583 3.00148 8.25902 3.00148 9.9981C3.00148 11.7372 3.65285 13.4132 4.82723 14.6959L3.72775 15.7953C3.25542 15.4426 2.66702 15.2818 2.08094 15.3453C1.49486 15.4088 0.954575 15.692 0.568779 16.1377C0.182983 16.5834 -0.0196976 17.1588 0.00151118 17.7479C0.02272 18.337 0.266245 18.8963 0.683094 19.3131C1.09994 19.73 1.65919 19.9735 2.24832 19.9947C2.83745 20.0159 3.41276 19.8132 3.8585 19.4274C4.30425 19.0416 4.58736 18.5013 4.65087 17.9153C4.71439 17.3292 4.5536 16.7408 4.20086 16.2685L5.30034 15.169C6.583 16.3434 8.25902 16.9947 9.9981 16.9947C11.7372 16.9947 13.4132 16.3434 14.6959 15.169L15.7953 16.2685C15.4426 16.7408 15.2818 17.3292 15.3453 17.9153C15.4088 18.5013 15.692 19.0416 16.1377 19.4274C16.5834 19.8132 17.1588 20.0159 17.7479 19.9947C18.337 19.9735 18.8963 19.73 19.3131 19.3131C19.73 18.8963 19.9735 18.337 19.9947 17.7479C20.0159 17.1588 19.8132 16.5834 19.4274 16.1377C19.0416 15.692 18.5013 15.4088 17.9153 15.3453C17.3292 15.2818 16.7408 15.4426 16.2685 15.7953L15.169 14.6959C16.3434 13.4132 16.9947 11.7372 16.9947 9.9981C16.9947 8.25902 16.3434 6.583 15.169 5.30034L16.2685 4.20086C16.5643 4.42275 16.9087 4.5711 17.2732 4.63367C17.6377 4.69624 18.0118 4.67123 18.3648 4.56071C18.7177 4.45019 19.0393 4.25732 19.303 3.99802C19.5667 3.73872 19.7649 3.42043 19.8814 3.06942C19.9978 2.71841 20.0291 2.34473 19.9727 1.97923C19.9163 1.61374 19.7737 1.2669 19.5569 0.967346C19.34 0.667792 19.055 0.424109 18.7253 0.256408C18.3957 0.0887081 18.0309 0.00179903 17.6611 0.00285367ZM0.669204 2.33508C0.669204 2.0056 0.766905 1.68352 0.949954 1.40957C1.133 1.13562 1.39318 0.922097 1.69758 0.796011C2.00197 0.669925 2.33693 0.636935 2.66007 0.701213C2.98322 0.765491 3.28005 0.92415 3.51303 1.15713C3.74601 1.3901 3.90467 1.68693 3.96894 2.01008C4.03322 2.33323 4.00023 2.66818 3.87415 2.97258C3.74806 3.27698 3.53454 3.53715 3.26059 3.7202C2.98664 3.90325 2.66456 4.00095 2.33508 4.00095C1.89326 4.00095 1.46954 3.82544 1.15713 3.51303C0.844715 3.20062 0.669204 2.7769 0.669204 2.33508ZM2.33508 19.327C2.0056 19.327 1.68352 19.2293 1.40957 19.0462C1.13562 18.8632 0.922097 18.603 0.796011 18.2986C0.669925 17.9942 0.636935 17.6593 0.701213 17.3361C0.765491 17.013 0.92415 16.7162 1.15713 16.4832C1.3901 16.2502 1.68693 16.0915 2.01008 16.0273C2.33323 15.963 2.66818 15.996 2.97258 16.1221C3.27698 16.2481 3.53715 16.4617 3.7202 16.7356C3.90325 17.0096 4.00095 17.3316 4.00095 17.6611C4.00095 17.8799 3.95786 18.0965 3.87415 18.2986C3.79043 18.5007 3.66772 18.6844 3.51303 18.8391C3.35834 18.9938 3.17469 19.1165 2.97258 19.2002C2.77047 19.2839 2.55384 19.327 2.33508 19.327ZM19.327 17.6611C19.327 17.9906 19.2293 18.3127 19.0462 18.5866C18.8632 18.8606 18.603 19.0741 18.2986 19.2002C17.9942 19.3263 17.6593 19.3593 17.3361 19.295C17.013 19.2307 16.7162 19.0721 16.4832 18.8391C16.2502 18.6061 16.0915 18.3093 16.0273 17.9861C15.963 17.663 15.996 17.328 16.1221 17.0236C16.2481 16.7192 16.4617 16.459 16.7356 16.276C17.0096 16.093 17.3316 15.9953 17.6611 15.9953C18.1029 15.9953 18.5267 16.1708 18.8391 16.4832C19.1515 16.7956 19.327 17.2193 19.327 17.6611ZM9.9981 16.3284C8.74608 16.3284 7.52218 15.9572 6.48116 15.2616C5.44015 14.566 4.62877 13.5773 4.14965 12.4206C3.67052 11.2639 3.54516 9.99108 3.78941 8.76312C4.03367 7.53515 4.63658 6.4072 5.52189 5.52189C6.4072 4.63658 7.53515 4.03367 8.76312 3.78941C9.99108 3.54516 11.2639 3.67052 12.4206 4.14965C13.5773 4.62877 14.566 5.44015 15.2616 6.48116C15.9572 7.52218 16.3284 8.74608 16.3284 9.9981C16.3284 11.677 15.6615 13.2872 14.4743 14.4743C13.2872 15.6615 11.677 16.3284 9.9981 16.3284ZM17.6611 4.00095C17.3316 4.00095 17.0096 3.90325 16.7356 3.7202C16.4617 3.53715 16.2481 3.27698 16.1221 2.97258C15.996 2.66818 15.963 2.33323 16.0273 2.01008C16.0915 1.68693 16.2502 1.3901 16.4832 1.15713C16.7162 0.92415 17.013 0.765491 17.3361 0.701213C17.6593 0.636935 17.9942 0.669925 18.2986 0.796011C18.603 0.922097 18.8632 1.13562 19.0462 1.40957C19.2293 1.68352 19.327 2.0056 19.327 2.33508C19.327 2.55384 19.2839 2.77047 19.2002 2.97258C19.1165 3.17469 18.9938 3.35834 18.8391 3.51303C18.6844 3.66772 18.5007 3.79043 18.2986 3.87415C18.0965 3.95786 17.8799 4.00095 17.6611 4.00095Z" fill="black" fill-opacity="0.2"/>
<path d="M2.66816 1.33546H2.00181V2.00181H1.33546V2.66816H2.00181V3.33451H2.66816V2.66816H3.33451V2.00181H2.66816V1.33546ZM17.9942 1.33546H17.3279V2.00181H16.6615V2.66816H17.3279V3.33451H17.9942V2.66816H18.6606V2.00181H17.9942V1.33546ZM2.66816 16.6615H2.00181V17.3279H1.33546V17.9942H2.00181V18.6606H2.66816V17.9942H3.33451V17.3279H2.66816V16.6615ZM17.3279 18.6606H17.9942V17.9942H18.6606V17.3279H17.9942V16.6615H17.3279V17.3279H16.6615V17.9942H17.3279V18.6606ZM17.661 7.66579H18.3274V8.33214H17.661V7.66579ZM17.661 8.99849H18.3274V9.66484H17.661V8.99849ZM17.661 10.3312H18.3274V10.9975H17.661V10.3312ZM17.661 11.6639H18.3274V12.3302H17.661V11.6639ZM18.9937 8.33214H19.6601V8.99849H18.9937V8.33214ZM18.9937 9.66484H19.6601V10.3312H18.9937V9.66484ZM18.9937 10.9975H19.6601V11.6639H18.9937V10.9975ZM1.66864 7.66579H2.33499V8.33214H1.66864V7.66579ZM1.66864 8.99849H2.33499V9.66484H1.66864V8.99849ZM1.66864 10.3312H2.33499V10.9975H1.66864V10.3312ZM1.66864 11.6639H2.33499V12.3302H1.66864V11.6639ZM0.335938 8.33214H1.00229V8.99849H0.335938V8.33214ZM0.335938 9.66484H1.00229V10.3312H0.335938V9.66484ZM0.335938 10.9975H1.00229V11.6639H0.335938V10.9975ZM7.66579 1.66864H8.33214V2.33499H7.66579V1.66864ZM8.99849 1.66864H9.66484V2.33499H8.99849V1.66864ZM10.3312 1.66864H10.9975V2.33499H10.3312V1.66864ZM11.6639 1.66864H12.3302V2.33499H11.6639V1.66864ZM8.33214 0.335938H8.99849V1.00229H8.33214V0.335938ZM9.66484 0.335938H10.3312V1.00229H9.66484V0.335938ZM10.9975 0.335938H11.6639V1.00229H10.9975V0.335938ZM7.66579 17.661H8.33214V18.3274H7.66579V17.661ZM8.99849 17.661H9.66484V18.3274H8.99849V17.661ZM10.3312 17.661H10.9975V18.3274H10.3312V17.661ZM11.6639 17.661H12.3302V18.3274H11.6639V17.661ZM8.33214 18.9937H8.99849V19.6601H8.33214V18.9937ZM9.66484 18.9937H10.3312V19.6601H9.66484V18.9937ZM10.9975 18.9937H11.6639V19.6601H10.9975V18.9937Z" fill="#696E90"/>
<path d="M2.66816 1.33546H2.00181V2.00181H1.33546V2.66816H2.00181V3.33451H2.66816V2.66816H3.33451V2.00181H2.66816V1.33546ZM17.9942 1.33546H17.3279V2.00181H16.6615V2.66816H17.3279V3.33451H17.9942V2.66816H18.6606V2.00181H17.9942V1.33546ZM2.66816 16.6615H2.00181V17.3279H1.33546V17.9942H2.00181V18.6606H2.66816V17.9942H3.33451V17.3279H2.66816V16.6615ZM17.3279 18.6606H17.9942V17.9942H18.6606V17.3279H17.9942V16.6615H17.3279V17.3279H16.6615V17.9942H17.3279V18.6606ZM17.661 7.66579H18.3274V8.33214H17.661V7.66579ZM17.661 8.99849H18.3274V9.66484H17.661V8.99849ZM17.661 10.3312H18.3274V10.9975H17.661V10.3312ZM17.661 11.6639H18.3274V12.3302H17.661V11.6639ZM18.9937 8.33214H19.6601V8.99849H18.9937V8.33214ZM18.9937 9.66484H19.6601V10.3312H18.9937V9.66484ZM18.9937 10.9975H19.6601V11.6639H18.9937V10.9975ZM1.66864 7.66579H2.33499V8.33214H1.66864V7.66579ZM1.66864 8.99849H2.33499V9.66484H1.66864V8.99849ZM1.66864 10.3312H2.33499V10.9975H1.66864V10.3312ZM1.66864 11.6639H2.33499V12.3302H1.66864V11.6639ZM0.335938 8.33214H1.00229V8.99849H0.335938V8.33214ZM0.335938 9.66484H1.00229V10.3312H0.335938V9.66484ZM0.335938 10.9975H1.00229V11.6639H0.335938V10.9975ZM7.66579 1.66864H8.33214V2.33499H7.66579V1.66864ZM8.99849 1.66864H9.66484V2.33499H8.99849V1.66864ZM10.3312 1.66864H10.9975V2.33499H10.3312V1.66864ZM11.6639 1.66864H12.3302V2.33499H11.6639V1.66864ZM8.33214 0.335938H8.99849V1.00229H8.33214V0.335938ZM9.66484 0.335938H10.3312V1.00229H9.66484V0.335938ZM10.9975 0.335938H11.6639V1.00229H10.9975V0.335938ZM7.66579 17.661H8.33214V18.3274H7.66579V17.661ZM8.99849 17.661H9.66484V18.3274H8.99849V17.661ZM10.3312 17.661H10.9975V18.3274H10.3312V17.661ZM11.6639 17.661H12.3302V18.3274H11.6639V17.661ZM8.33214 18.9937H8.99849V19.6601H8.33214V18.9937ZM9.66484 18.9937H10.3312V19.6601H9.66484V18.9937ZM10.9975 18.9937H11.6639V19.6601H10.9975V18.9937Z" fill="black" fill-opacity="0.2"/>
</svg>
