<svg width="20" height="18" viewBox="0 0 20 18" fill="none" xmlns="http://www.w3.org/2000/svg">
<path d="M18.7086 12.2653L4.95361 14.6906C4.10376 14.8405 3.29337 14.273 3.14353 13.4232L1.62947 4.83662C1.47962 3.98677 2.04708 3.17638 2.89689 3.02654L16.6519 0.601146C17.5017 0.451302 18.3121 1.01876 18.462 1.86857L19.976 10.4552C20.1259 11.305 19.5585 12.1154 18.7086 12.2653Z" fill="#8389B4"/>
<path d="M18.7086 12.2653L4.95361 14.6906C4.10376 14.8405 3.29337 14.273 3.14353 13.4232L1.62947 4.83662C1.47962 3.98677 2.04708 3.17638 2.89689 3.02654L16.6519 0.601146C17.5017 0.451302 18.3121 1.01876 18.462 1.86857L19.976 10.4552C20.1259 11.305 19.5585 12.1154 18.7086 12.2653Z" fill="black" fill-opacity="0.2"/>
<path d="M16.6519 0.601146L9.77441 1.81384L11.8311 13.478L18.7086 12.2653C19.5584 12.1155 20.1259 11.3051 19.976 10.4552L18.462 1.86861C18.3122 1.01876 17.5018 0.451302 16.6519 0.601146Z" fill="#585E88"/>
<path d="M15.2344 17.5388H1.5625C0.699571 17.5388 0 16.8392 0 15.9763V7.47168C0 6.60875 0.699571 5.90918 1.5625 5.90918H15.2344C16.0973 5.90918 16.7969 6.60875 16.7969 7.47168V15.9763C16.7969 16.8392 16.0973 17.5388 15.2344 17.5388Z" fill="#8389B4"/>
<path d="M15.2344 17.5388H1.5625C0.699571 17.5388 0 16.8392 0 15.9763V7.47168C0 6.60875 0.699571 5.90918 1.5625 5.90918H15.2344C16.0973 5.90918 16.7969 6.60875 16.7969 7.47168V15.9763C16.7969 16.8392 16.0973 17.5388 15.2344 17.5388Z" fill="black" fill-opacity="0.2"/>
<path d="M0 8.56738H16.7969V11.2256H0V8.56738Z" fill="#ECF6FD"/>
<path d="M4.65137 14.959H1.99316C1.66957 14.959 1.40723 15.2213 1.40723 15.5449C1.40723 15.8685 1.66957 16.1309 1.99316 16.1309H4.65137C4.97496 16.1309 5.23731 15.8685 5.23731 15.5449C5.23731 15.2213 4.97496 14.959 4.65137 14.959Z" fill="#EAF6FF"/>
<path d="M8.39844 8.56738H16.7969V11.2256H8.39844V8.56738Z" fill="#D6E8FE"/>
</svg>
