<svg width="30" height="30" viewBox="0 0 30 30" fill="none" xmlns="http://www.w3.org/2000/svg">
<g clip-path="url(#clip0_2664_203686)">
<path d="M29.375 6.25H0.625C0.45924 6.25 0.300269 6.31585 0.183058 6.43306C0.065848 6.55027 0 6.70924 0 6.875L0 23.125C0 23.2908 0.065848 23.4497 0.183058 23.5669C0.300269 23.6842 0.45924 23.75 0.625 23.75H29.375C29.5408 23.75 29.6997 23.6842 29.8169 23.5669C29.9342 23.4497 30 23.2908 30 23.125V6.875C30 6.70924 29.9342 6.55027 29.8169 6.43306C29.6997 6.31585 29.5408 6.25 29.375 6.25ZM28.75 22.5H1.25V7.5H28.75V22.5Z" fill="#8389B4"/>
<path d="M3.125 19.375C3.45652 19.375 3.77446 19.5067 4.00888 19.7411C4.2433 19.9755 4.375 20.2935 4.375 20.625C4.375 20.7908 4.44085 20.9497 4.55806 21.0669C4.67527 21.1842 4.83424 21.25 5 21.25H25C25.1658 21.25 25.3247 21.1842 25.4419 21.0669C25.5592 20.9497 25.625 20.7908 25.625 20.625C25.625 20.2935 25.7567 19.9755 25.9911 19.7411C26.2255 19.5067 26.5435 19.375 26.875 19.375C27.0408 19.375 27.1997 19.3092 27.3169 19.1919C27.4342 19.0747 27.5 18.9158 27.5 18.75V11.25C27.5 11.0842 27.4342 10.9253 27.3169 10.8081C27.1997 10.6908 27.0408 10.625 26.875 10.625C26.5435 10.625 26.2255 10.4933 25.9911 10.2589C25.7567 10.0245 25.625 9.70652 25.625 9.375C25.625 9.20924 25.5592 9.05027 25.4419 8.93306C25.3247 8.81585 25.1658 8.75 25 8.75H5C4.83424 8.75 4.67527 8.81585 4.55806 8.93306C4.44085 9.05027 4.375 9.20924 4.375 9.375C4.375 9.70652 4.2433 10.0245 4.00888 10.2589C3.77446 10.4933 3.45652 10.625 3.125 10.625C2.95924 10.625 2.80027 10.6908 2.68306 10.8081C2.56585 10.9253 2.5 11.0842 2.5 11.25V18.75C2.5 18.9158 2.56585 19.0747 2.68306 19.1919C2.80027 19.3092 2.95924 19.375 3.125 19.375ZM10 15C10 14.0111 10.2932 13.0444 10.8427 12.2221C11.3921 11.3999 12.173 10.759 13.0866 10.3806C14.0002 10.0022 15.0055 9.90315 15.9755 10.0961C16.9454 10.289 17.8363 10.7652 18.5355 11.4645C19.2348 12.1637 19.711 13.0546 19.9039 14.0245C20.0969 14.9945 19.9978 15.9998 19.6194 16.9134C19.241 17.827 18.6001 18.6079 17.7779 19.1573C16.9556 19.7068 15.9889 20 15 20C13.6739 20 12.4021 19.4732 11.4645 18.5355C10.5268 17.5979 10 16.3261 10 15ZM24.4563 10C24.568 10.4318 24.7933 10.8259 25.1087 11.1413C25.4241 11.4567 25.8182 11.682 26.25 11.7938V18.2063C25.8182 18.318 25.4241 18.5433 25.1087 18.8587C24.7933 19.1741 24.568 19.5682 24.4563 20H18.75C19.5262 19.4178 20.1562 18.6629 20.5902 17.7951C21.0241 16.9272 21.25 15.9703 21.25 15C21.25 14.0297 21.0241 13.0728 20.5902 12.2049C20.1562 11.3371 19.5262 10.5822 18.75 10H24.4563ZM3.75 11.7938C4.18182 11.682 4.57588 11.4567 4.89129 11.1413C5.20669 10.8259 5.43197 10.4318 5.54375 10H11.25C10.4738 10.5822 9.84375 11.3371 9.40983 12.2049C8.97591 13.0728 8.75 14.0297 8.75 15C8.75 15.9703 8.97591 16.9272 9.40983 17.7951C9.84375 18.6629 10.4738 19.4178 11.25 20H5.54375C5.43197 19.5682 5.20669 19.1741 4.89129 18.8587C4.57588 18.5433 4.18182 18.318 3.75 18.2063V11.7938Z" fill="#8389B4"/>
<path d="M14.3748 13.1251H16.8748C17.0406 13.1251 17.1996 13.0593 17.3168 12.9421C17.434 12.8248 17.4998 12.6659 17.4998 12.5001C17.4998 12.3344 17.434 12.1754 17.3168 12.0582C17.1996 11.941 17.0406 11.8751 16.8748 11.8751H15.6248V11.2501C15.6248 11.0844 15.559 10.9254 15.4418 10.8082C15.3246 10.691 15.1656 10.6251 14.9998 10.6251C14.8341 10.6251 14.6751 10.691 14.5579 10.8082C14.4407 10.9254 14.3748 11.0844 14.3748 11.2501V11.8751C13.8775 11.8751 13.4006 12.0727 13.049 12.4243C12.6974 12.7759 12.4998 13.2528 12.4998 13.7501C12.4998 14.2474 12.6974 14.7243 13.049 15.0759C13.4006 15.4276 13.8775 15.6251 14.3748 15.6251H15.6248C15.7906 15.6251 15.9496 15.691 16.0668 15.8082C16.184 15.9254 16.2498 16.0844 16.2498 16.2501C16.2498 16.4159 16.184 16.5748 16.0668 16.6921C15.9496 16.8093 15.7906 16.8751 15.6248 16.8751H13.1248C12.9591 16.8751 12.8001 16.941 12.6829 17.0582C12.5657 17.1754 12.4998 17.3344 12.4998 17.5001C12.4998 17.6659 12.5657 17.8248 12.6829 17.9421C12.8001 18.0593 12.9591 18.1251 13.1248 18.1251H14.3748V18.7501C14.3748 18.9159 14.4407 19.0748 14.5579 19.1921C14.6751 19.3093 14.8341 19.3751 14.9998 19.3751C15.1656 19.3751 15.3246 19.3093 15.4418 19.1921C15.559 19.0748 15.6248 18.9159 15.6248 18.7501V18.1251C16.1221 18.1251 16.599 17.9276 16.9507 17.5759C17.3023 17.2243 17.4998 16.7474 17.4998 16.2501C17.4998 15.7528 17.3023 15.2759 16.9507 14.9243C16.599 14.5727 16.1221 14.3751 15.6248 14.3751H14.3748C14.2091 14.3751 14.0501 14.3093 13.9329 14.1921C13.8157 14.0748 13.7498 13.9159 13.7498 13.7501C13.7498 13.5844 13.8157 13.4254 13.9329 13.3082C14.0501 13.191 14.2091 13.1251 14.3748 13.1251ZM5.80608 15.4439C5.9147 15.56 6.06351 15.6304 6.2222 15.6407C6.38089 15.6509 6.53754 15.6003 6.66022 15.4992C6.78291 15.398 6.86242 15.2538 6.88255 15.0961C6.90268 14.9384 6.86192 14.7789 6.76858 14.6501C6.34983 13.9439 5.14983 14.7126 5.80608 15.4439ZM23.7498 15.6251C23.9156 15.6251 24.0746 15.5593 24.1918 15.4421C24.309 15.3248 24.3748 15.1659 24.3748 15.0001C24.3748 14.8765 24.3382 14.7557 24.2695 14.6529C24.2008 14.5501 24.1032 14.47 23.989 14.4227C23.8748 14.3754 23.7491 14.363 23.6279 14.3871C23.5067 14.4112 23.3953 14.4708 23.3079 14.5582C23.2205 14.6456 23.161 14.7569 23.1368 14.8782C23.1127 14.9994 23.1251 15.1251 23.1724 15.2393C23.2197 15.3535 23.2998 15.4511 23.4026 15.5198C23.5054 15.5885 23.6262 15.6251 23.7498 15.6251ZM8.12483 25.0001C7.95907 25.0001 7.8001 25.066 7.68289 25.1832C7.56568 25.3004 7.49983 25.4594 7.49983 25.6251C7.49983 25.7909 7.56568 25.9498 7.68289 26.0671C7.8001 26.1843 7.95907 26.2501 8.12483 26.2501H20.3686L18.9311 27.6814C18.8134 27.7991 18.7473 27.9587 18.7473 28.1251C18.7473 28.2916 18.8134 28.4512 18.9311 28.5689C19.0488 28.6866 19.2084 28.7527 19.3748 28.7527C19.5413 28.7527 19.7009 28.6866 19.8186 28.5689C22.4561 25.9251 22.6686 25.9001 22.4498 25.3876C22.2311 24.8751 22.9436 25.0001 8.12483 25.0001ZM8.12483 5.00012H21.8748C22.0406 5.00012 22.1996 4.93427 22.3168 4.81706C22.434 4.69985 22.4998 4.54088 22.4998 4.37512C22.4998 4.20936 22.434 4.05038 22.3168 3.93317C22.1996 3.81596 22.0406 3.75012 21.8748 3.75012H9.63108L11.0686 2.31887C11.1863 2.20118 11.2524 2.04155 11.2524 1.87512C11.2524 1.70868 11.1863 1.54906 11.0686 1.43137C10.9509 1.31368 10.7913 1.24756 10.6248 1.24756C10.4584 1.24756 10.2988 1.31368 10.1811 1.43137L7.68108 3.93137C7.59294 4.01879 7.53282 4.13047 7.50841 4.25219C7.48399 4.37391 7.49637 4.50014 7.54397 4.61479C7.59158 4.72944 7.67225 4.82732 7.7757 4.89595C7.87915 4.96457 8.00069 5.00084 8.12483 5.00012Z" fill="#8389B4"/>
</g>
<defs>
<clipPath id="clip0_2664_203686">
<rect width="30" height="30" fill="white"/>
</clipPath>
</defs>
</svg>
