<svg width="30" height="30" viewBox="0 0 30 30" fill="none" xmlns="http://www.w3.org/2000/svg">
<path d="M27.1875 11.7188H25.7812V6.5625C25.7812 6.43818 25.7319 6.31895 25.644 6.23104C25.556 6.14314 25.4368 6.09375 25.3125 6.09375H23.9062V2.8125C23.9062 2.68818 23.8569 2.56895 23.769 2.48104C23.681 2.39314 23.5618 2.34375 23.4375 2.34375H4.6875C3.39516 2.34375 2.34375 3.39516 2.34375 4.6875V21.5625C2.34375 22.8548 3.39516 23.9062 4.6875 23.9062H13.9687C14.5805 23.8992 14.5833 22.9744 13.9687 22.9688H4.6875C3.91219 22.9688 3.28125 22.3378 3.28125 21.5625V6.55031C3.68461 6.86044 4.1787 7.02942 4.6875 7.03125H24.8438V11.7188H21.5625C20.7872 11.7188 20.1562 12.3497 20.1562 13.125V13.6078C20.1595 14.2205 21.0909 14.2209 21.0938 13.6078V13.125C21.0938 12.8667 21.3042 12.6562 21.5625 12.6562H26.7188V16.7297C26.7211 17.3414 27.6534 17.3437 27.6562 16.7297V12.1875C27.6562 12.0632 27.6069 11.944 27.519 11.856C27.431 11.7681 27.3118 11.7188 27.1875 11.7188ZM22.9688 6.09375H4.6875C3.91219 6.09375 3.28125 5.46281 3.28125 4.6875C3.28125 3.91219 3.91219 3.28125 4.6875 3.28125H22.9688V6.09375Z" fill="#8389B4"/>
<path d="M6.56248 7.96875C4.70811 8.0175 4.70857 10.733 6.56248 10.7812C8.41686 10.7325 8.41639 8.01703 6.56248 7.96875ZM6.56248 9.84375C5.94982 9.84047 5.94982 8.90953 6.56248 8.90625C7.17514 8.90953 7.17514 9.84047 6.56248 9.84375Z" fill="#8389B4"/>
<path d="M23.9062 9.37498C23.8575 7.52061 21.142 7.52107 21.0938 9.37498C21.1425 11.2294 23.858 11.2289 23.9062 9.37498ZM22.0312 9.37498C22.0345 8.76232 22.9655 8.76232 22.9688 9.37498C22.9655 9.98764 22.0345 9.98764 22.0312 9.37498Z" fill="#8389B4"/>
<path d="M6.56248 19.2188C4.70811 19.2675 4.70857 21.983 6.56248 22.0312C8.41686 21.9825 8.41639 19.267 6.56248 19.2188ZM6.56248 21.0938C5.94982 21.0905 5.94982 20.1595 6.56248 20.1562C7.17514 20.1595 7.17514 21.0905 6.56248 21.0938Z" fill="#8389B4"/>
<path d="M21.0938 15.9375C18.2508 15.9375 15.9375 18.2508 15.9375 21.0938C16.2206 27.9342 25.9678 27.9323 26.25 21.0938C26.25 18.2508 23.9367 15.9375 21.0938 15.9375ZM21.0938 25.3125C18.7678 25.3125 16.875 23.4197 16.875 21.0938C17.0967 15.5011 25.0922 15.5025 25.3125 21.0938C25.3125 23.4197 23.4197 25.3125 21.0938 25.3125Z" fill="#8389B4"/>
<path d="M21.0938 14.5312C17.475 14.5312 14.5312 17.475 14.5312 21.0938C14.8917 29.7998 27.2972 29.7975 27.6562 21.0938C27.6562 17.475 24.7125 14.5312 21.0938 14.5312ZM21.0938 26.7188C17.992 26.7188 15.4688 24.1955 15.4688 21.0938C15.7781 13.6312 26.4108 13.6336 26.7188 21.0938C26.7188 24.1955 24.1955 26.7188 21.0938 26.7188Z" fill="#8389B4"/>
<path d="M22.3593 21.6961C22.7371 20.9733 22.3166 20.0156 21.5624 19.7742V17.8125C21.5624 17.6882 21.513 17.569 21.4251 17.481C21.3372 17.3931 21.218 17.3438 21.0937 17.3438C20.9694 17.3438 20.8501 17.3931 20.7622 17.481C20.6743 17.569 20.6249 17.6882 20.6249 17.8125V19.7737C18.8118 20.4741 19.9096 23.1497 21.696 22.3589L22.6373 23.3002C22.6805 23.3449 22.7322 23.3806 22.7894 23.4052C22.8466 23.4298 22.9081 23.4427 22.9704 23.4432C23.0326 23.4438 23.0943 23.4319 23.1519 23.4084C23.2095 23.3848 23.2619 23.35 23.3059 23.306C23.3499 23.262 23.3847 23.2096 23.4083 23.152C23.4318 23.0944 23.4437 23.0327 23.4432 22.9704C23.4426 22.9082 23.4297 22.8467 23.4051 22.7895C23.3806 22.7323 23.3448 22.6806 23.3001 22.6373L22.3593 21.6961ZM20.6249 21.0938C20.6282 20.4811 21.5591 20.4811 21.5624 21.0938C21.5591 21.7064 20.6282 21.7064 20.6249 21.0938Z" fill="#8389B4"/>
<path d="M18.2814 20.625H17.8127C17.2 20.6278 17.1996 21.5597 17.8127 21.5625H18.2814C18.8941 21.5597 18.8946 20.6278 18.2814 20.625Z" fill="#8389B4"/>
<path d="M23.4375 21.0938C23.4375 21.2181 23.4869 21.3373 23.5748 21.4252C23.6627 21.5131 23.7819 21.5625 23.9062 21.5625H24.375C24.4993 21.5625 24.6185 21.5131 24.7065 21.4252C24.7944 21.3373 24.8438 21.2181 24.8438 21.0938C24.8438 20.9694 24.7944 20.8502 24.7065 20.7623C24.6185 20.6744 24.4993 20.625 24.375 20.625H23.9062C23.7819 20.625 23.6627 20.6744 23.5748 20.7623C23.4869 20.8502 23.4375 20.9694 23.4375 21.0938Z" fill="#8389B4"/>
<path d="M21.0938 23.4375C20.9694 23.4375 20.8502 23.4869 20.7623 23.5748C20.6744 23.6627 20.625 23.7819 20.625 23.9062V24.375C20.625 24.4993 20.6744 24.6185 20.7623 24.7065C20.8502 24.7944 20.9694 24.8438 21.0938 24.8438C21.2181 24.8438 21.3373 24.7944 21.4252 24.7065C21.5131 24.6185 21.5625 24.4993 21.5625 24.375V23.9062C21.5625 23.7819 21.5131 23.6627 21.4252 23.5748C21.3373 23.4869 21.2181 23.4375 21.0938 23.4375Z" fill="#8389B4"/>
</svg>
