<svg width="31" height="36" viewBox="0 0 31 36" fill="none" xmlns="http://www.w3.org/2000/svg">
<path d="M25.8978 2.64974C24.2602 0.794703 21.2965 0 17.5051 0H6.5022C5.72726 0 5.06867 0.559805 4.94573 1.31719L0.36418 30.1438C0.274172 30.7124 0.717625 31.2261 1.29719 31.2261H8.08948L9.79524 20.491L9.74255 20.8291C9.8633 20.0717 10.5197 19.5119 11.2946 19.5119H14.5217C20.864 19.5119 25.8276 16.9566 27.2787 9.56498C27.3226 9.34545 27.3907 8.92395 27.3907 8.92395C27.8033 6.18859 27.3884 4.33355 25.8978 2.64974Z" fill="#8389B4"/>
<path d="M29.1095 10.3246C27.5332 17.602 22.5038 21.4526 14.5216 21.4526H11.6282L9.46802 35.125H14.1616C14.8399 35.125 15.4173 34.6355 15.5227 33.9703L15.5776 33.6805L16.6577 26.8948L16.7279 26.5216C16.8333 25.8564 17.4107 25.3669 18.0868 25.3669H18.9452C24.4927 25.3669 28.8351 23.132 30.104 16.6668C30.6133 14.072 30.3674 11.8964 29.1095 10.3246Z" fill="#8389B4"/>
</svg>
