<svg width="30" height="30" viewBox="0 0 30 30" fill="none" xmlns="http://www.w3.org/2000/svg">
<g clip-path="url(#clip0_2663_203522)">
<path d="M1.75781 1.75781H7.03125V0H0V7.03125H1.75781V1.75781ZM22.9688 0V1.75781H28.2422V7.03125H30V0H22.9688ZM28.2422 28.2422H22.9688V30H30V22.9688H28.2422V28.2422ZM1.75781 22.9688H0V30H7.03125V28.2422H1.75781V22.9688Z" fill="#8389B4"/>
<path d="M3.57422 3.51562V12.3047H12.3633V7.03125H14.1211V5.27344H12.3633V3.51562H3.57422ZM10.6055 10.5469H5.33203V5.27344H10.6055V10.5469ZM26.4258 26.3672V17.5781H22.9102V15.8203H21.1523V17.5781H15.8789V19.3359H17.6367V21.0938H15.8789V22.8516H17.6367V26.3672H26.4258ZM19.3945 19.3359H24.668V24.6094H19.3945V19.3359ZM8.84766 15.8203H12.3633V14.0625H3.57422V15.8203H7.08984V17.5781H5.33203V19.3359H7.08984V22.8516H5.33203V24.6094H7.08984V26.3672H15.8789V24.6094H14.1211V22.8516H12.3633V24.6094H8.84766V22.8516H10.6055V21.0938H8.84766V15.8203Z" fill="#8389B4"/>
<path d="M7.08984 7.03125H8.84766V8.78906H7.08984V7.03125ZM21.1523 7.03125H22.9102V8.78906H21.1523V7.03125Z" fill="#8389B4"/>
<path d="M22.9102 12.3047H26.4258V3.51562H17.6367V12.3047H21.1523V14.0625H22.9102V12.3047ZM19.3945 10.5469V5.27344H24.668V10.5469H19.3945ZM26.4258 15.8203V14.0625H22.9102V15.8203H26.4258ZM21.1523 21.0938H22.9102V22.8516H21.1523V21.0938ZM14.1211 19.3359H15.8789V21.0938H14.1211V19.3359ZM10.6055 21.0938H12.3633V17.5781H10.6055V21.0938ZM12.3633 15.8203H14.1211V17.5781H12.3633V15.8203ZM5.33203 19.3359H3.57422V22.8516H5.33203V19.3359ZM3.57422 24.6094H5.33203V26.3672H3.57422V24.6094ZM14.1211 3.51562H15.8789V5.27344H14.1211V3.51562ZM14.1211 10.5469H15.8789V7.03125H14.1211V10.5469ZM15.8789 14.0625V12.3047H14.1211V15.8203H21.1523V14.0625H15.8789Z" fill="#8389B4"/>
</g>
<defs>
<clipPath id="clip0_2663_203522">
<rect width="30" height="30" fill="white"/>
</clipPath>
</defs>
</svg>
