<svg width="17" height="29" viewBox="0 0 17 29" fill="none" xmlns="http://www.w3.org/2000/svg">
<path d="M2.48064 0.414062H15.5076C16.216 0.414062 16.75 0.932585 16.75 1.52482V26.8885C16.75 27.4807 16.216 27.9993 15.5076 27.9993H2.48064C1.77228 27.9993 1.23828 27.4807 1.23828 26.8885V1.52482C1.23828 0.932585 1.77228 0.414062 2.48064 0.414062Z" fill="#DAD8E8" stroke="#001850" stroke-width="0.5"/>
<path fill-rule="evenodd" clip-rule="evenodd" d="M2.34912 4.09375H15.6388V24.3213H2.34912V4.09375Z" fill="white"/>
<path d="M10.6862 6.5625L6.86035 20.4563L14.1093 13.3332L10.6862 6.5625Z" fill="#001850" fill-opacity="0.2" stroke="#001850" stroke-width="0.5" stroke-miterlimit="10" stroke-linecap="round" stroke-linejoin="round"/>
<path d="M8.11875 6.20996L4.34326 20.5065L11.6677 13.4337L8.11875 6.20996Z" fill="white" stroke="#001850" stroke-width="0.5" stroke-miterlimit="10" stroke-linecap="round" stroke-linejoin="round"/>
<path d="M8.78715 27.3331C9.36615 27.3331 9.83552 26.8637 9.83552 26.2847C9.83552 25.7057 9.36615 25.2363 8.78715 25.2363C8.20814 25.2363 7.73877 25.7057 7.73877 26.2847C7.73877 26.8637 8.20814 27.3331 8.78715 27.3331Z" fill="#001850"/>
<path fill-rule="evenodd" clip-rule="evenodd" d="M8.30193 1.87988H11.1397C11.305 1.87988 11.4401 2.01497 11.4401 2.18034C11.4401 2.34572 11.305 2.4808 11.1397 2.4808H8.30193C8.13656 2.4808 8.00148 2.34572 8.00148 2.18034C8.00148 2.01497 8.13656 1.87988 8.30193 1.87988ZM6.84831 1.87988H6.91833C7.08321 1.87988 7.21879 2.01497 7.21879 2.18034C7.21879 2.34572 7.08321 2.4808 6.91833 2.4808H6.84831C6.68293 2.4808 6.54785 2.34572 6.54785 2.18034C6.54785 2.01497 6.68293 1.87988 6.84831 1.87988Z" fill="#001850"/>
</svg>
