<svg width="40" height="35" viewBox="0 0 40 35" fill="none" xmlns="http://www.w3.org/2000/svg">
<path fill-rule="evenodd" clip-rule="evenodd" d="M24.6933 27.7013C24.3866 27.7013 24.1372 27.4523 24.1372 27.1463C24.1372 26.84 24.3866 26.591 24.6933 26.591C24.9988 26.591 25.2479 26.84 25.2479 27.1463C25.2479 27.4523 24.9989 27.7013 24.6933 27.7013ZM24.6933 25.3004C23.6752 25.3004 22.8469 26.1287 22.8469 27.1463C22.8469 28.1636 23.6753 28.9919 24.6933 28.9919C25.7106 28.9919 26.5381 28.1636 26.5381 27.1463C26.5381 26.1287 25.7106 25.3004 24.6933 25.3004ZM25.714 21.5796C25.922 21.29 25.8559 20.8869 25.5671 20.6788C25.2778 20.4711 24.8743 20.5368 24.6662 20.826L19.637 27.8253C19.4291 28.1149 19.4954 28.5174 19.7847 28.7253C19.8986 28.8078 20.03 28.8472 20.1605 28.8472C20.3617 28.8472 20.5591 28.7538 20.6851 28.5777L25.714 21.5796ZM20.0592 22.261C20.0592 21.9554 20.3082 21.7061 20.6146 21.7061C20.9205 21.7061 21.1696 21.9554 21.1696 22.261C21.1696 22.5673 20.9205 22.8167 20.6146 22.8167C20.3083 22.8167 20.0592 22.5674 20.0592 22.261V22.261ZM22.4598 22.261C22.4598 23.2787 21.6326 24.107 20.6146 24.107C19.5969 24.107 18.769 23.2787 18.769 22.261C18.769 21.244 19.5969 20.4158 20.6146 20.4158C21.6326 20.4158 22.4598 21.244 22.4598 22.261ZM10.0744 28.7592C10.0744 29.1161 9.78554 29.4046 9.42908 29.4046H5.99041C5.63476 29.4046 5.34507 29.1161 5.34507 28.7592C5.34507 28.4039 5.63468 28.1143 5.99041 28.1143H9.42908C9.78554 28.1143 10.0744 28.404 10.0744 28.7592V28.7592ZM10.0744 26.0656C10.0744 26.4221 9.78554 26.711 9.42908 26.711H5.99041C5.63476 26.711 5.34507 26.4221 5.34507 26.0656C5.34507 25.7092 5.63468 25.4207 5.99041 25.4207H9.42908C9.78554 25.4207 10.0744 25.7092 10.0744 26.0656V26.0656ZM10.0744 23.3725C10.0744 23.7289 9.78554 24.0174 9.42908 24.0174H5.99041C5.63476 24.0174 5.34507 23.7289 5.34507 23.3725C5.34507 23.016 5.63468 22.7271 5.99041 22.7271H9.42908C9.78554 22.7271 10.0744 23.016 10.0744 23.3725V23.3725ZM10.0744 20.6789C10.0744 21.0353 9.78554 21.3238 9.42908 21.3238H5.99041C5.63476 21.3238 5.34507 21.0353 5.34507 20.6789C5.34507 20.3221 5.63468 20.0335 5.99041 20.0335H9.42908C9.78554 20.0335 10.0744 20.322 10.0744 20.6789V20.6789ZM12.7057 27.3908V29.0071C12.7057 29.3636 12.4161 29.6521 12.0608 29.6521C11.7044 29.6521 11.4155 29.3636 11.4155 29.0071V27.3908C11.4155 27.0344 11.7044 26.7455 12.0608 26.7455C12.4161 26.7455 12.7057 27.0344 12.7057 27.3908ZM12.7057 23.9221V25.5384C12.7057 25.894 12.4161 26.1837 12.0608 26.1837C11.7044 26.1837 11.4155 25.8941 11.4155 25.5384V23.9221C11.4155 23.5656 11.7044 23.2771 12.0608 23.2771C12.4161 23.2771 12.7057 23.5657 12.7057 23.9221V23.9221ZM12.7057 20.453V22.0689C12.7057 22.4257 12.4161 22.7142 12.0608 22.7142C11.7044 22.7142 11.4155 22.4257 11.4155 22.0689V20.453C11.4155 20.0966 11.7044 19.8076 12.0608 19.8076C12.4161 19.8077 12.7057 20.0966 12.7057 20.453ZM22.9817 12.2804C22.6761 12.2804 22.4268 12.0318 22.4268 11.7254C22.4268 11.4199 22.6761 11.1705 22.9817 11.1705C23.2881 11.1705 23.5374 11.4199 23.5374 11.7254C23.5374 12.0317 23.2881 12.2804 22.9817 12.2804V12.2804ZM22.9817 9.88025C21.9647 9.88025 21.1365 10.7078 21.1365 11.7254C21.1365 12.7431 21.9648 13.5706 22.9817 13.5706C23.9994 13.5706 24.8276 12.7431 24.8276 11.7254C24.8277 10.7078 23.9994 9.88025 22.9817 9.88025ZM37.5877 15.6728C37.1018 14.306 37.5156 12.7568 38.6202 11.815L37.6409 10.1198C36.0503 10.6857 34.2681 10.0439 33.4092 8.55587C32.5497 7.06827 32.8849 5.20518 34.1714 4.11009L33.1924 2.41409C31.8255 2.89692 30.2771 2.4824 29.3342 1.38085L13.9106 10.2861L13.6479 11.2673C13.6415 11.2916 13.6331 11.314 13.6252 11.3375L14.302 12.5093C14.48 12.8184 14.3745 13.2123 14.0662 13.3908C13.9649 13.4496 13.8533 13.4777 13.744 13.4777C13.5212 13.4777 13.3041 13.3616 13.1849 13.1546L12.5077 11.9829C12.4841 11.9779 12.4599 11.973 12.4363 11.9666L11.4544 11.7035L5.80105 14.9673C5.82686 15.0402 5.84928 15.1142 5.87016 15.1882H10.7673C11.0315 15.1882 11.2802 15.2915 11.4665 15.4778L12.0598 16.0723L12.6543 15.4778C12.8407 15.2915 13.0889 15.1882 13.3535 15.1882H14.3583L14.1108 14.7593C13.9328 14.4506 14.0391 14.0563 14.3472 13.8779C14.6559 13.6998 15.0502 13.8061 15.2287 14.1143L15.8489 15.1882H25.1023L25.7738 8.45692C25.8095 8.102 26.1238 7.84312 26.4795 7.87957C26.8344 7.91409 27.0933 8.2303 27.0576 8.58523L26.399 15.1882H27.6209C27.3055 14.8568 27.111 14.4093 27.111 13.9166C27.111 12.8989 27.9393 12.0714 28.9562 12.0714C29.9739 12.0714 30.8021 12.8989 30.8021 13.9166C30.8021 14.4093 30.6078 14.8568 30.2924 15.1882H31.5487C32.0559 15.1882 32.4788 15.5682 32.5319 16.0731C32.6158 16.8603 33.115 17.5295 33.8035 17.8571L37.5877 15.6728ZM28.4011 13.9164C28.4011 13.6109 28.6506 13.3615 28.9561 13.3615C29.2624 13.3615 29.5119 13.6109 29.5119 13.9164C29.5119 14.2231 29.2625 14.4722 28.9561 14.4722C28.6506 14.4722 28.4011 14.2231 28.4011 13.9164ZM34.1125 21.26V19.3028C32.6867 19.0375 31.5537 17.9036 31.2883 16.4786H13.4783L12.7597 17.1972C12.7422 17.215 12.7236 17.2302 12.7058 17.2462V18.6005C12.7058 18.957 12.4161 19.2455 12.0609 19.2455C11.7044 19.2455 11.4156 18.957 11.4156 18.6005V17.2462C11.3969 17.2302 11.3784 17.215 11.3609 17.1972L10.6423 16.4786H4.11449C3.84917 17.9036 2.71528 19.0375 1.29034 19.3028V21.26C2.95182 21.566 4.17369 23.0118 4.17369 24.7303C4.17369 26.4479 2.95182 27.8942 1.29034 28.1998V30.1577C2.71528 30.4223 3.84917 31.5561 4.11377 32.9811H10.6424L11.361 32.263C11.3784 32.2452 11.397 32.2296 11.4156 32.2136V30.8597C11.4156 30.5032 11.7045 30.2143 12.061 30.2143C12.4163 30.2143 12.7059 30.5032 12.7059 30.8597V32.2136C12.7237 32.2296 12.7424 32.2459 12.7598 32.263L13.4783 32.9811H31.2884C31.5537 31.5562 32.6868 30.4223 34.1126 30.1577V28.1997C32.4504 27.8949 31.2296 26.4479 31.2296 24.7302C31.2295 23.0118 32.4503 21.566 34.1125 21.26V21.26ZM39.869 11.3956L38.6277 9.24862C38.3734 8.80902 37.8344 8.63329 37.3712 8.83902C36.3236 9.30443 35.1013 8.90507 34.5262 7.91095C33.9527 6.91722 34.2184 5.65841 35.1431 4.98429C35.553 4.6859 35.6707 4.12944 35.4202 3.69064L34.1797 1.54408C33.9261 1.10416 33.3851 0.928427 32.9213 1.13408C31.9651 1.55924 30.8245 1.25367 30.2084 0.407533C29.91 -0.00206973 29.3544 -0.120862 28.9148 0.133497L13.1575 9.22999C12.9286 9.3625 12.7646 9.57621 12.6959 9.83089L12.4791 10.6424L11.6679 10.4253C11.4121 10.3566 11.146 10.3915 10.9171 10.5236L4.93055 13.9802C4.50651 14.2247 4.32893 14.7368 4.5016 15.1881H3.85401C3.3469 15.1881 2.9244 15.5681 2.87012 16.0729C2.75964 17.1133 1.92495 17.9488 0.884448 18.0586C0.379602 18.1125 0 18.5354 0 19.0425V21.5212C0 22.0287 0.379602 22.4512 0.884448 22.5048C2.02325 22.6255 2.88302 23.5821 2.88302 24.7303C2.88302 25.8778 2.02325 26.8344 0.884045 26.9555C0.379602 27.0094 0 27.4323 0 27.9394V30.4173C0 30.9248 0.379602 31.348 0.884448 31.4016C1.92495 31.5121 2.75964 32.3464 2.87012 33.3869C2.9244 33.8917 3.3469 34.2717 3.85401 34.2717H10.7672C11.0314 34.2717 11.28 34.1692 11.4664 33.9821L12.0608 33.3885L12.6541 33.9821C12.8405 34.1692 13.0887 34.2717 13.3533 34.2717H31.5487C32.0559 34.2717 32.4787 33.8917 32.5318 33.3869C32.6423 32.3464 33.4778 31.5121 34.5182 31.4016C35.0219 31.3473 35.4011 30.9248 35.4011 30.4173V27.9394C35.4011 27.4323 35.0219 27.0094 34.5182 26.9555C33.3787 26.8344 32.5196 25.8778 32.5196 24.7303C32.5196 23.582 33.3786 22.6254 34.5182 22.5048C35.0219 22.4512 35.4011 22.0287 35.4011 21.5212V19.0425C35.4011 18.8474 35.348 18.6659 35.2493 18.5118L38.4568 16.6602C38.8972 16.4062 39.0718 15.8657 38.8668 15.4023C38.4416 14.4456 38.7453 13.3054 39.5918 12.6893C40.0019 12.3908 40.1195 11.8344 39.869 11.3956V11.3956Z" fill="#545873"/>
</svg>
