<svg width="20" height="15" viewBox="0 0 20 15" fill="none" xmlns="http://www.w3.org/2000/svg">
<path d="M17.4067 14.9719H6.40807C6.09695 14.9719 5.84404 14.72 5.84404 14.4079C5.84404 14.0967 6.09595 13.8438 6.40807 13.8438H17.4067C18.2146 13.8438 18.8729 13.1865 18.8729 12.3776V2.59334C18.8729 1.78543 18.2156 1.12706 17.4067 1.12706H2.59334C1.78442 1.12706 1.12706 1.78442 1.12706 2.59334V12.3776C1.12706 13.1865 1.78442 13.8438 2.59334 13.8438C3.09514 13.8438 3.50261 13.4354 3.50261 12.9346V12.3143C3.50261 12.0032 3.75452 11.7503 4.06664 11.7503C4.37776 11.7503 4.63067 12.0022 4.63067 12.3143V12.9346C4.63067 14.0576 3.71738 14.9719 2.59334 14.9719C1.16319 14.9719 0 13.8077 0 12.3776V2.59334C0 1.16319 1.16319 0 2.59334 0H17.4067C18.8368 0 20 1.16319 20 2.59334V12.3776C20 13.8077 18.8368 14.9719 17.4067 14.9719Z" fill="#696E90"/>
<path d="M17.4067 14.9719H6.40807C6.09695 14.9719 5.84404 14.72 5.84404 14.4079C5.84404 14.0967 6.09595 13.8438 6.40807 13.8438H17.4067C18.2146 13.8438 18.8729 13.1865 18.8729 12.3776V2.59334C18.8729 1.78543 18.2156 1.12706 17.4067 1.12706H2.59334C1.78442 1.12706 1.12706 1.78442 1.12706 2.59334V12.3776C1.12706 13.1865 1.78442 13.8438 2.59334 13.8438C3.09514 13.8438 3.50261 13.4354 3.50261 12.9346V12.3143C3.50261 12.0032 3.75452 11.7503 4.06664 11.7503C4.37776 11.7503 4.63067 12.0022 4.63067 12.3143V12.9346C4.63067 14.0576 3.71738 14.9719 2.59334 14.9719C1.16319 14.9719 0 13.8077 0 12.3776V2.59334C0 1.16319 1.16319 0 2.59334 0H17.4067C18.8368 0 20 1.16319 20 2.59334V12.3776C20 13.8077 18.8368 14.9719 17.4067 14.9719Z" fill="black" fill-opacity="0.2"/>
<path d="M20.0005 10.1277H13.0233C11.5661 10.1277 10.3818 8.94248 10.3818 7.48624C10.3818 6.02999 11.5671 4.84473 13.0233 4.84473H20.0005V10.1277ZM13.0233 5.97178C12.1883 5.97178 11.5089 6.65123 11.5089 7.48624C11.5089 8.32124 12.1883 9.00069 13.0233 9.00069H18.8734V5.97178H13.0233Z" fill="#696E90"/>
<path d="M20.0005 10.1277H13.0233C11.5661 10.1277 10.3818 8.94248 10.3818 7.48624C10.3818 6.02999 11.5671 4.84473 13.0233 4.84473H20.0005V10.1277ZM13.0233 5.97178C12.1883 5.97178 11.5089 6.65123 11.5089 7.48624C11.5089 8.32124 12.1883 9.00069 13.0233 9.00069H18.8734V5.97178H13.0233Z" fill="black" fill-opacity="0.2"/>
<path d="M5.53987 3.69837H3.13923C2.82811 3.69837 2.5752 3.44647 2.5752 3.13434C2.5752 2.82322 2.8271 2.57031 3.13923 2.57031H5.53987C5.85099 2.57031 6.1039 2.82222 6.1039 3.13434C6.1039 3.44647 5.85199 3.69837 5.53987 3.69837Z" fill="#696E90"/>
<path d="M5.53987 3.69837H3.13923C2.82811 3.69837 2.5752 3.44647 2.5752 3.13434C2.5752 2.82322 2.8271 2.57031 3.13923 2.57031H5.53987C5.85099 2.57031 6.1039 2.82222 6.1039 3.13434C6.1039 3.44647 5.85199 3.69837 5.53987 3.69837Z" fill="black" fill-opacity="0.2"/>
</svg>
