<svg width="30" height="29" viewBox="0 0 30 29" fill="none" xmlns="http://www.w3.org/2000/svg">
<path d="M5.94073 6.05306C-2.99447 14.1475 0.228149 16.8402 2.36665 17.8756C4.50244 18.9138 7.35197 17.489 10.9125 14.7044C14.4731 11.9197 22.7162 6.54781 24.66 9.22161C26.6012 11.8981 26.6444 17.2079 18.3148 24.1992C9.98522 31.1906 8.25766 27.1028 12.3697 23.8964C16.4818 20.69 15.7248 18.7597 13.7837 18.4785C11.7452 18.1838 9.98522 18.6732 8.17385 21.9985C8.17385 21.9985 5.40002 27.3569 8.94976 28.7303C11.4235 29.6874 18.7258 26.7405 24.0896 21.3389C28.0421 17.3593 30.9322 12.601 29.721 6.25312C28.1341 -2.06296 14.8759 -2.03863 5.94073 6.05306Z" fill="#ED1C24"/>
</svg>
