<svg width="30" height="31" viewBox="0 0 30 31" fill="none" xmlns="http://www.w3.org/2000/svg">
<path d="M30 15.6358C30 14.5592 29.909 13.5205 29.7367 12.5264H15.304V18.4139H23.5701C23.2158 20.3334 22.1426 21.9664 20.514 23.0599V26.8834H25.4475C28.3359 24.2217 30 20.2869 30 15.6358Z" fill="#4285F4"/>
<path d="M15.304 30.5759C19.4343 30.5759 22.9113 29.2206 25.4475 26.8833L20.514 23.0598C19.1411 23.984 17.3724 24.524 15.304 24.524C11.3124 24.524 7.92433 21.8355 6.71229 18.2129H1.62988V22.1509C4.1486 27.1457 9.32512 30.5759 15.304 30.5759Z" fill="#34A853"/>
<path d="M6.71225 18.2133C6.40235 17.2901 6.23232 16.3048 6.23232 15.2872C6.23232 14.2707 6.40209 13.2853 6.71225 12.3611V8.42285H1.62984C0.588866 10.4869 0 12.8176 0 15.2872C0 17.7568 0.588866 20.0896 1.62984 22.1513L6.71225 18.2133Z" fill="#FABB05"/>
<path d="M15.304 6.05112C17.5591 6.05112 19.581 6.82535 21.1752 8.34391V8.34599L25.5431 3.98243C22.8903 1.51519 19.432 0 15.304 0C9.32512 0 4.14834 3.42814 1.62988 8.42268L6.71229 12.3609C7.92459 8.7383 11.3127 6.05112 15.304 6.05112Z" fill="#E94235"/>
</svg>
