<svg width="30" height="30" viewBox="0 0 30 30" fill="none" xmlns="http://www.w3.org/2000/svg">
<g clip-path="url(#clip0_2660_203526)">
<path d="M30 15C30 16.6665 29.7282 18.27 29.2261 19.7682C27.2339 25.7149 21.6172 30 15 30C8.39203 30 2.78203 25.7272 0.781818 19.7933C0.274924 18.2878 1.91221e-06 16.6763 1.91221e-06 15C-0.000553704 13.8973 0.119973 12.7978 0.359416 11.7214C1.85508 5.01369 7.84166 0 15 0C22.309 0 28.3972 5.22732 29.7294 12.1475C29.9098 13.0876 30.0004 14.0428 30 15Z" fill="white"/>
<path d="M30 14.9996C30 16.6661 29.7282 18.2696 29.2261 19.7678C29.1018 19.7678 28.9769 19.7672 28.852 19.7659C28.5171 19.7629 28.4357 19.6827 28.4345 19.3404C28.4308 17.647 28.4314 15.9535 28.4277 14.2607C28.4272 13.8107 28.2508 13.6288 27.8314 13.6306C27.4139 13.6325 27.2332 13.8192 27.2327 14.2619C27.2314 15.9259 27.2327 17.5894 27.2332 19.2529C27.2332 19.7237 27.1573 19.7972 26.6773 19.7941C26.3504 19.7923 26.024 19.7941 25.6971 19.7923C25.3279 19.7905 25.2391 19.6974 25.2385 19.3043C25.2361 17.6311 25.2361 15.9572 25.2336 14.2839C25.233 13.8425 25.0622 13.6459 24.6826 13.6349C24.2326 13.6227 24.0354 13.8174 24.0354 14.2809C24.0342 15.9548 24.0348 17.628 24.0348 19.3013C24.0348 19.7041 23.9767 19.7623 23.5696 19.7648C23.1936 19.7666 22.8171 19.7635 22.4412 19.7672C22.1853 19.7697 22.0598 19.6619 22.0604 19.3938C22.0629 16.9576 22.0629 14.5221 22.0586 12.086C22.058 11.8233 22.1792 11.6966 22.4296 11.693C22.8453 11.6868 23.2611 11.6948 23.6768 11.6905C23.9388 11.6874 24.0263 11.857 24.06 12.1013C24.7121 11.628 25.3941 11.519 26.1313 11.7738C26.3511 11.8497 26.5427 11.9709 26.7123 12.1215C26.8317 12.2274 26.9063 12.2268 27.0362 12.1258C27.9221 11.4382 29.0107 11.5007 29.7295 12.1472C29.9098 13.0873 30.0004 14.0424 30 14.9996Z" fill="#00B8F8"/>
<path d="M10.4565 16.2514H10.4528C10.4528 15.4004 10.4528 14.5494 10.4522 13.6983C10.4517 13.6291 10.4418 13.56 10.4357 13.4914C10.3518 12.5241 9.83514 11.9394 8.88 11.7863C8.03573 11.6516 7.18166 11.7465 6.33182 11.7312C6.11262 11.727 6.0269 11.8794 6.02877 12.0888C6.03182 12.4353 6.02936 12.7818 6.03 13.1278C6.03123 13.5159 6.1108 13.5992 6.49776 13.6017C7.01203 13.6054 7.52696 13.5974 8.04123 13.6035C8.33022 13.6065 8.45754 13.7345 8.44776 13.9917C8.43856 14.2488 8.30326 14.3602 8.0461 14.3522C7.75957 14.343 7.47182 14.3443 7.1853 14.3517C6.06674 14.3804 5.27631 15.1322 5.24022 16.2154C5.22305 16.7388 5.2292 17.2641 5.23412 17.7882C5.24514 19.0464 5.9492 19.7486 7.21043 19.7572C7.98246 19.7627 8.75391 19.7602 9.52594 19.7572C10.162 19.7547 10.4504 19.4719 10.4554 18.8339C10.4614 17.973 10.4565 17.1122 10.4565 16.2514ZM8.0908 17.9773C7.26 18.0158 7.2416 18.0012 7.2416 17.1715C7.2416 16.9934 7.24037 16.8152 7.24219 16.637C7.24342 16.5685 7.2324 16.4895 7.26117 16.4326C7.46198 16.0328 7.83422 16.2299 8.13422 16.2073C8.35524 16.1901 8.46604 16.3493 8.4624 16.5758C8.45994 16.7436 8.46182 16.9119 8.46182 17.0803C8.4624 17.2487 8.46 17.417 8.46305 17.5848C8.46733 17.8395 8.35043 17.965 8.0908 17.9773ZM16.3679 15.0364C16.3675 15.9275 16.3728 16.8187 16.3663 17.7097C16.3569 18.9997 15.5521 19.7957 14.2598 19.8008C13.5865 19.8034 12.9132 19.8031 12.2399 19.8009C11.8727 19.7998 11.7901 19.7145 11.7886 19.3436C11.7871 18.9674 11.7958 18.5909 11.7869 18.2149C11.7803 17.9373 11.9093 17.8149 12.1783 17.814C12.7724 17.8122 13.3664 17.8054 13.9604 17.8058C14.1899 17.8059 14.398 17.7621 14.3976 17.486C14.3972 17.209 14.187 17.17 13.9586 17.1667C13.5243 17.1603 13.0867 17.2025 12.6582 17.0937C11.8195 16.8806 11.2292 16.2195 11.2005 15.3582C11.1639 14.2604 11.1838 13.1606 11.1822 12.0616C11.1819 11.8322 11.3024 11.7189 11.5353 11.7204C11.9412 11.7233 12.3472 11.7183 12.7532 11.7221C13.0695 11.725 13.1601 11.8137 13.1614 12.1295C13.1649 12.9711 13.1629 13.8127 13.1641 14.6544C13.1648 15.0984 13.2422 15.1771 13.6728 15.1797C14.3742 15.1839 14.3889 15.1689 14.3885 14.4734C14.3881 13.7012 14.3869 12.9288 14.39 12.1565C14.3914 11.7933 14.4629 11.7246 14.8274 11.7219C15.1838 11.7192 15.5403 11.7197 15.8967 11.721C16.2954 11.7225 16.3675 11.7926 16.368 12.1847C16.369 13.1353 16.3682 14.0859 16.3679 15.0364ZM4.74369 13.6114C4.72471 12.4249 4.00594 11.7281 2.81145 11.722C1.99412 11.7183 1.17615 11.7202 0.359416 11.7214C0.119973 12.7978 -0.000553704 13.8972 1.91221e-06 14.9999C1.91221e-06 16.6762 0.274924 18.2877 0.781818 19.7932C0.887111 19.7932 0.991818 19.7926 1.09653 19.792C1.46696 19.7902 1.56 19.7026 1.56182 19.345C1.56487 18.7707 1.57102 18.1965 1.56182 17.6222C1.55877 17.4434 1.60588 17.3816 1.79262 17.3871C2.19791 17.3999 2.60444 17.3999 3.00979 17.3846C3.96123 17.3479 4.66653 16.6941 4.72283 15.7487C4.76572 15.0385 4.75471 14.324 4.74369 13.6114ZM2.75631 15.0532C2.75262 15.2773 2.63022 15.4004 2.40551 15.4065C2.18877 15.4126 1.9708 15.3979 1.75471 15.412C1.58449 15.423 1.55819 15.3434 1.56369 15.2014C1.57166 14.9846 1.56551 14.7673 1.56551 14.5506C1.5661 14.343 1.57834 14.1349 1.56246 13.9291C1.5484 13.7399 1.62428 13.6886 1.80065 13.7002C1.99717 13.7136 2.19492 13.6989 2.39209 13.7051C2.62781 13.7124 2.75701 13.8355 2.7576 14.0767C2.75942 14.4024 2.76182 14.7281 2.75631 15.0532Z" fill="#002875"/>
<path d="M20.2367 16.7018C20.2367 17.6022 20.2382 18.5026 20.2359 19.4029C20.2349 19.7569 20.1695 19.8223 19.821 19.8253C19.4451 19.8285 19.069 19.8302 18.6932 19.8251C18.3546 19.8205 18.2785 19.7424 18.278 19.3988C18.2756 17.6277 18.2753 15.8567 18.2753 14.0857C18.2753 13.6973 18.2775 13.6973 17.9043 13.6968C17.1425 13.6959 17.1425 13.6959 17.1425 12.9307C17.1425 12.6635 17.1459 12.3963 17.1415 12.1292C17.1371 11.8654 17.243 11.7265 17.5249 11.7206C18.2268 11.7059 18.7764 11.4162 19.1535 10.8071C19.2986 10.5728 19.4738 10.3532 19.7369 10.2318C20.0379 10.093 20.2216 10.2022 20.2266 10.5289C20.2318 10.8652 20.2329 11.2017 20.226 11.538C20.2232 11.677 20.2668 11.7332 20.4117 11.7253C20.5991 11.715 20.7875 11.7244 20.9755 11.7236C21.1941 11.7226 21.3067 11.8313 21.3081 12.0485C21.311 12.4838 21.3126 12.9191 21.3101 13.3544C21.3088 13.5809 21.1985 13.7059 20.9612 13.6966C20.9415 13.6958 20.9217 13.6964 20.9018 13.6967C20.2366 13.7071 20.2366 13.7071 20.2366 14.3866C20.2367 15.1583 20.2367 15.9301 20.2367 16.7018Z" fill="#00B8F8"/>
</g>
<defs>
<clipPath id="clip0_2660_203526">
<rect width="30" height="30" fill="white"/>
</clipPath>
</defs>
</svg>
