<svg width="30" height="31" viewBox="0 0 30 31" fill="none" xmlns="http://www.w3.org/2000/svg">
<path d="M15.0014 0.941406C6.71675 0.941406 0.000976562 7.65718 0.000976562 15.941C0.000976562 24.2256 6.71675 30.9407 15.0006 30.9407C23.2845 30.9407 30.001 24.2256 30.001 15.941C30.001 7.65718 23.2852 0.941406 15.0014 0.941406Z" fill="#673AB7"/>
<path d="M21.86 11.876V12.389C21.86 12.5401 21.8219 12.653 21.7464 12.7285C21.6708 12.804 21.5579 12.8422 21.4069 12.8422H20.6202H19.8335C19.7461 12.8422 19.681 12.8653 19.6369 12.9132C19.5935 12.9611 19.5718 13.0328 19.5718 13.1278V19.2304V25.3315C19.5718 25.4826 19.5337 25.5962 19.4589 25.671C19.3834 25.7465 19.2697 25.7847 19.1187 25.7847H18.4868H17.8557C17.7046 25.7847 17.591 25.7465 17.5154 25.671C17.4407 25.5962 17.4025 25.4833 17.4025 25.3315V23.1263V20.9219H17.3562H17.3083C17.1169 21.2554 16.8387 21.5051 16.473 21.6726C16.1081 21.8394 15.6557 21.9224 15.1143 21.9224H14.7689H14.4234C13.8753 21.9224 13.3817 21.8416 12.9428 21.6809C12.5031 21.5208 12.1187 21.2793 11.789 20.957C11.4592 20.6362 11.2124 20.2549 11.0472 19.8167C10.8827 19.377 10.7997 18.8789 10.7997 18.3241V15.7256V13.1278C10.7997 13.0411 10.7817 12.973 10.7458 12.9252C10.7107 12.8773 10.6568 12.8496 10.5851 12.8422H9.89336H9.20242C9.05137 12.8422 8.93846 12.8018 8.86293 12.7225C8.7874 12.6433 8.74927 12.5251 8.74927 12.3651V11.8648V11.3638C8.74927 11.221 8.7874 11.1133 8.86293 11.043C8.93846 10.9712 9.05137 10.9353 9.20242 10.9353H12.7132H16.224C15.7163 10.4067 15.2243 9.84732 14.7487 9.25583C14.2731 8.66359 13.8147 8.04069 13.3735 7.38415L12.7057 6.39409L12.0395 5.40553C12.0081 5.35094 11.9849 5.29262 11.9684 5.23354C11.9527 5.17372 11.9438 5.1124 11.9438 5.04884C11.9438 4.92995 11.9737 4.84021 12.0335 4.78039C12.0926 4.72132 12.1823 4.69141 12.3012 4.69141H13.028H13.7549C13.8977 4.69141 14.0211 4.72132 14.125 4.78039C14.2282 4.84021 14.312 4.92995 14.3755 5.04884L16.0797 7.79019L17.7839 10.5308C17.8721 10.6661 17.9671 10.7678 18.071 10.8344C18.1742 10.9017 18.2856 10.9353 18.4045 10.9353H18.4644H18.5242H19.9659H21.4076C21.5587 10.9353 21.6716 10.9705 21.7471 11.043C21.8226 11.114 21.8608 11.221 21.8608 11.3638L21.86 11.876Z" fill="white"/>
<path d="M17.1408 12.8428H15.1861H13.2315C13.1432 12.8428 13.0774 12.866 13.0341 12.9138C12.9907 12.9617 12.969 13.0335 12.969 13.1284V15.62V18.1101C12.969 18.73 13.12 19.1944 13.4221 19.504C13.7242 19.8143 14.1774 19.9691 14.7809 19.9691H15.1024H15.4239C15.7582 19.9691 16.0491 19.9264 16.2966 19.8412C16.5449 19.756 16.7505 19.6273 16.9128 19.4568C17.0758 19.2856 17.1984 19.0845 17.2799 18.8526C17.3614 18.6193 17.4026 18.3569 17.4026 18.063V15.5961V13.1292C17.4026 13.0342 17.3809 12.9617 17.3367 12.9146C17.2934 12.866 17.2283 12.8428 17.1408 12.8428Z" fill="#673AB7"/>
</svg>
