<svg width="36" height="27" viewBox="0 0 36 27" fill="none" xmlns="http://www.w3.org/2000/svg">
<path d="M31.4826 26.25H3.77425C2.80767 26.2488 1.88101 25.8644 1.19754 25.1809C0.514061 24.4974 0.129576 23.5707 0.128418 22.6042L0.128418 3.64583C0.128418 1.63625 1.76467 0 3.77425 0H31.4826C33.4922 0 35.1284 1.63625 35.1284 3.64583V22.6042C35.1284 24.6138 33.4922 26.25 31.4826 26.25ZM3.77425 1.45833C2.56821 1.45833 1.58675 2.43979 1.58675 3.64583V22.6042C1.58675 23.8102 2.56821 24.7917 3.77425 24.7917H31.4826C32.6886 24.7917 33.6701 23.8102 33.6701 22.6042V3.64583C33.6701 2.43979 32.6886 1.45833 31.4826 1.45833H3.77425Z" fill="black"/>
<path d="M11.0659 13.1252C9.05633 13.1252 7.42008 11.4889 7.42008 9.47933C7.42008 7.46975 9.05633 5.8335 11.0659 5.8335C13.0755 5.8335 14.7118 7.46975 14.7118 9.47933C14.7118 11.4889 13.0755 13.1252 11.0659 13.1252ZM11.0659 7.29183C9.85988 7.29183 8.87842 8.27329 8.87842 9.47933C8.87842 10.6854 9.85988 11.6668 11.0659 11.6668C12.272 11.6668 13.2534 10.6854 13.2534 9.47933C13.2534 8.27329 12.272 7.29183 11.0659 7.29183ZM16.8993 20.4168C16.7059 20.4168 16.5204 20.34 16.3837 20.2033C16.2469 20.0665 16.1701 19.8811 16.1701 19.6877V18.2293C16.1701 17.0233 15.1886 16.0418 13.9826 16.0418H8.14925C6.94321 16.0418 5.96175 17.0233 5.96175 18.2293V19.6877C5.96175 19.8811 5.88493 20.0665 5.74818 20.2033C5.61144 20.34 5.42597 20.4168 5.23258 20.4168C5.0392 20.4168 4.85373 20.34 4.71699 20.2033C4.58024 20.0665 4.50342 19.8811 4.50342 19.6877V18.2293C4.50342 16.2197 6.13967 14.5835 8.14925 14.5835H13.9826C15.9922 14.5835 17.6284 16.2197 17.6284 18.2293V19.6877C17.6284 19.8811 17.5516 20.0665 17.4149 20.2033C17.2781 20.34 17.0926 20.4168 16.8993 20.4168ZM30.0243 8.75016H21.2743C21.0809 8.75016 20.8954 8.67334 20.7587 8.5366C20.6219 8.39985 20.5451 8.21438 20.5451 8.021C20.5451 7.82761 20.6219 7.64214 20.7587 7.5054C20.8954 7.36865 21.0809 7.29183 21.2743 7.29183H30.0243C30.2176 7.29183 30.4031 7.36865 30.5399 7.5054C30.6766 7.64214 30.7534 7.82761 30.7534 8.021C30.7534 8.21438 30.6766 8.39985 30.5399 8.5366C30.4031 8.67334 30.2176 8.75016 30.0243 8.75016ZM30.0243 14.5835H21.2743C21.0809 14.5835 20.8954 14.5067 20.7587 14.3699C20.6219 14.2332 20.5451 14.0477 20.5451 13.8543C20.5451 13.6609 20.6219 13.4755 20.7587 13.3387C20.8954 13.202 21.0809 13.1252 21.2743 13.1252H30.0243C30.2176 13.1252 30.4031 13.202 30.5399 13.3387C30.6766 13.4755 30.7534 13.6609 30.7534 13.8543C30.7534 14.0477 30.6766 14.2332 30.5399 14.3699C30.4031 14.5067 30.2176 14.5835 30.0243 14.5835ZM30.0243 20.4168H21.2743C21.0809 20.4168 20.8954 20.34 20.7587 20.2033C20.6219 20.0665 20.5451 19.8811 20.5451 19.6877C20.5451 19.4943 20.6219 19.3088 20.7587 19.1721C20.8954 19.0353 21.0809 18.9585 21.2743 18.9585H30.0243C30.2176 18.9585 30.4031 19.0353 30.5399 19.1721C30.6766 19.3088 30.7534 19.4943 30.7534 19.6877C30.7534 19.8811 30.6766 20.0665 30.5399 20.2033C30.4031 20.34 30.2176 20.4168 30.0243 20.4168Z" fill="black"/>
</svg>
