<svg width="308" height="86" viewBox="0 0 308 86" fill="none" xmlns="http://www.w3.org/2000/svg">
<g filter="url(#filter0_d_1574_87300)">
<rect x="5" y="5" width="298" height="76" rx="3" fill="#F9FAFB"/>
<rect x="5.5" y="5.5" width="297" height="75" rx="2.5" stroke="#D3D3D3"/>
</g>
<path d="M239.237 56.5273C239.101 56.5046 238.952 56.4932 238.793 56.4932C238.201 56.4932 237.799 56.7454 237.587 57.25V61H236.684V55.7168H237.562L237.577 56.3271C237.873 55.8551 238.293 55.6191 238.837 55.6191C239.013 55.6191 239.146 55.6419 239.237 55.6875V56.5273Z" fill="#555555"/>
<path d="M242.167 61.0977C241.451 61.0977 240.868 60.8633 240.419 60.3945C239.97 59.9225 239.745 59.2926 239.745 58.5049V58.3389C239.745 57.8148 239.844 57.3477 240.043 56.9375C240.245 56.5241 240.525 56.2018 240.883 55.9707C241.244 55.7363 241.635 55.6191 242.055 55.6191C242.742 55.6191 243.275 55.8454 243.656 56.2979C244.037 56.7503 244.228 57.3981 244.228 58.2412V58.6172H240.648C240.661 59.138 240.813 59.5596 241.103 59.8818C241.396 60.2008 241.767 60.3604 242.216 60.3604C242.535 60.3604 242.805 60.2952 243.026 60.165C243.248 60.0348 243.441 59.8623 243.607 59.6475L244.159 60.0771C243.716 60.7575 243.052 61.0977 242.167 61.0977ZM242.055 56.3613C241.69 56.3613 241.384 56.4948 241.137 56.7617C240.889 57.0254 240.736 57.3965 240.678 57.875H243.324V57.8066C243.298 57.3477 243.174 56.9928 242.953 56.7422C242.732 56.4883 242.432 56.3613 242.055 56.3613Z" fill="#555555"/>
<path d="M250.648 58.7441C250.561 59.4961 250.282 60.0771 249.813 60.4873C249.348 60.8942 248.728 61.0977 247.953 61.0977C247.113 61.0977 246.439 60.7965 245.932 60.1943C245.427 59.5921 245.175 58.7865 245.175 57.7773V57.0938C245.175 56.4329 245.292 55.8519 245.526 55.3506C245.764 54.8493 246.099 54.4652 246.532 54.1982C246.965 53.9281 247.466 53.793 248.036 53.793C248.791 53.793 249.397 54.0046 249.853 54.4277C250.308 54.8477 250.574 55.4303 250.648 56.1758H249.706C249.625 55.6094 249.447 55.1992 249.174 54.9453C248.904 54.6914 248.524 54.5645 248.036 54.5645C247.437 54.5645 246.967 54.7858 246.625 55.2285C246.286 55.6712 246.117 56.3011 246.117 57.1182V57.8066C246.117 58.5781 246.278 59.1917 246.601 59.6475C246.923 60.1032 247.374 60.3311 247.953 60.3311C248.474 60.3311 248.873 60.2139 249.149 59.9795C249.429 59.7419 249.615 59.3301 249.706 58.7441H250.648Z" fill="#555555"/>
<path d="M255.858 59.1445H252.88L252.211 61H251.244L253.959 53.8906H254.779L257.499 61H256.537L255.858 59.1445ZM253.163 58.373H255.58L254.369 55.0479L253.163 58.373Z" fill="#555555"/>
<path d="M259.394 58.2168V61H258.456V53.8906H261.078C261.856 53.8906 262.465 54.0892 262.904 54.4863C263.347 54.8835 263.568 55.4092 263.568 56.0635C263.568 56.7536 263.352 57.2858 262.919 57.6602C262.489 58.0312 261.872 58.2168 261.068 58.2168H259.394ZM259.394 57.4502H261.078C261.579 57.4502 261.964 57.333 262.23 57.0986C262.497 56.861 262.631 56.5192 262.631 56.0732C262.631 55.6501 262.497 55.3115 262.23 55.0576C261.964 54.8037 261.597 54.6719 261.132 54.6621H259.394V57.4502Z" fill="#555555"/>
<path d="M269.677 54.6621H267.392V61H266.459V54.6621H264.179V53.8906H269.677V54.6621Z" fill="#555555"/>
<path d="M275.824 58.7441C275.736 59.4961 275.458 60.0771 274.989 60.4873C274.524 60.8942 273.904 61.0977 273.129 61.0977C272.289 61.0977 271.615 60.7965 271.107 60.1943C270.603 59.5921 270.351 58.7865 270.351 57.7773V57.0938C270.351 56.4329 270.468 55.8519 270.702 55.3506C270.94 54.8493 271.275 54.4652 271.708 54.1982C272.141 53.9281 272.642 53.793 273.212 53.793C273.967 53.793 274.573 54.0046 275.028 54.4277C275.484 54.8477 275.749 55.4303 275.824 56.1758H274.882C274.8 55.6094 274.623 55.1992 274.35 54.9453C274.079 54.6914 273.7 54.5645 273.212 54.5645C272.613 54.5645 272.143 54.7858 271.801 55.2285C271.462 55.6712 271.293 56.3011 271.293 57.1182V57.8066C271.293 58.5781 271.454 59.1917 271.776 59.6475C272.099 60.1032 272.549 60.3311 273.129 60.3311C273.65 60.3311 274.049 60.2139 274.325 59.9795C274.605 59.7419 274.791 59.3301 274.882 58.7441H275.824Z" fill="#555555"/>
<path d="M282.572 61H281.63V57.7139H278.046V61H277.108V53.8906H278.046V56.9473H281.63V53.8906H282.572V61Z" fill="#555555"/>
<path d="M288.251 59.1445H285.272L284.604 61H283.637L286.352 53.8906H287.172L289.892 61H288.93L288.251 59.1445ZM285.556 58.373H287.973L286.762 55.0479L285.556 58.373Z" fill="#555555"/>
<path d="M235.75 69.5391V71.7656H235V66.0781H237.098C237.72 66.0781 238.207 66.237 238.559 66.5547C238.913 66.8724 239.09 67.293 239.09 67.8164C239.09 68.3685 238.917 68.7943 238.57 69.0938C238.227 69.3906 237.733 69.5391 237.09 69.5391H235.75ZM235.75 68.9258H237.098C237.499 68.9258 237.806 68.832 238.02 68.6445C238.233 68.4544 238.34 68.181 238.34 67.8242C238.34 67.4857 238.233 67.2148 238.02 67.0117C237.806 66.8086 237.513 66.7031 237.141 66.6953H235.75V68.9258Z" fill="#555555"/>
<path d="M241.977 68.1875C241.867 68.1693 241.749 68.1602 241.621 68.1602C241.147 68.1602 240.826 68.362 240.656 68.7656V71.7656H239.934V67.5391H240.637L240.648 68.0273C240.885 67.6497 241.221 67.4609 241.656 67.4609C241.797 67.4609 241.904 67.4792 241.977 67.5156V68.1875Z" fill="#555555"/>
<path d="M243.43 71.7656H242.707V67.5391H243.43V71.7656ZM242.648 66.418C242.648 66.3008 242.684 66.2018 242.754 66.1211C242.827 66.0404 242.934 66 243.074 66C243.215 66 243.322 66.0404 243.395 66.1211C243.467 66.2018 243.504 66.3008 243.504 66.418C243.504 66.5352 243.467 66.6328 243.395 66.7109C243.322 66.7891 243.215 66.8281 243.074 66.8281C242.934 66.8281 242.827 66.7891 242.754 66.7109C242.684 66.6328 242.648 66.5352 242.648 66.418Z" fill="#555555"/>
<path d="M245.984 70.7852L247.031 67.5391H247.77L246.254 71.7656H245.703L244.172 67.5391H244.91L245.984 70.7852Z" fill="#555555"/>
<path d="M251.012 71.7656C250.97 71.6823 250.936 71.5339 250.91 71.3203C250.574 71.6693 250.173 71.8438 249.707 71.8438C249.29 71.8438 248.948 71.7266 248.68 71.4922C248.414 71.2552 248.281 70.9557 248.281 70.5938C248.281 70.1536 248.448 69.8125 248.781 69.5703C249.117 69.3255 249.589 69.2031 250.195 69.2031H250.898V68.8711C250.898 68.6185 250.823 68.418 250.672 68.2695C250.521 68.1185 250.298 68.043 250.004 68.043C249.746 68.043 249.53 68.1081 249.355 68.2383C249.181 68.3685 249.094 68.526 249.094 68.7109H248.367C248.367 68.5 248.441 68.2969 248.59 68.1016C248.741 67.9036 248.944 67.7474 249.199 67.6328C249.457 67.5182 249.74 67.4609 250.047 67.4609C250.534 67.4609 250.915 67.5833 251.191 67.8281C251.467 68.0703 251.611 68.4049 251.621 68.832V70.7773C251.621 71.1654 251.671 71.474 251.77 71.7031V71.7656H251.012ZM249.812 71.2148C250.039 71.2148 250.254 71.1562 250.457 71.0391C250.66 70.9219 250.807 70.7695 250.898 70.582V69.7148H250.332C249.447 69.7148 249.004 69.974 249.004 70.4922C249.004 70.7188 249.079 70.8958 249.23 71.0234C249.382 71.151 249.576 71.2148 249.812 71.2148Z" fill="#555555"/>
<path d="M254.449 71.2539C254.707 71.2539 254.932 71.1758 255.125 71.0195C255.318 70.8633 255.424 70.668 255.445 70.4336H256.129C256.116 70.6758 256.033 70.9062 255.879 71.125C255.725 71.3438 255.52 71.5182 255.262 71.6484C255.007 71.7786 254.736 71.8438 254.449 71.8438C253.874 71.8438 253.415 71.6523 253.074 71.2695C252.736 70.8841 252.566 70.3581 252.566 69.6914V69.5703C252.566 69.1589 252.642 68.793 252.793 68.4727C252.944 68.1523 253.16 67.9036 253.441 67.7266C253.725 67.5495 254.06 67.4609 254.445 67.4609C254.919 67.4609 255.312 67.6029 255.625 67.8867C255.94 68.1706 256.108 68.5391 256.129 68.9922H255.445C255.424 68.7188 255.32 68.4948 255.133 68.3203C254.948 68.1432 254.719 68.0547 254.445 68.0547C254.078 68.0547 253.793 68.1875 253.59 68.4531C253.389 68.7161 253.289 69.0977 253.289 69.5977V69.7344C253.289 70.2214 253.389 70.5964 253.59 70.8594C253.79 71.1224 254.077 71.2539 254.449 71.2539Z" fill="#555555"/>
<path d="M258.324 70.707L259.309 67.5391H260.082L258.383 72.418C258.12 73.1211 257.702 73.4727 257.129 73.4727L256.992 73.4609L256.723 73.4102V72.8242L256.918 72.8398C257.163 72.8398 257.353 72.7904 257.488 72.6914C257.626 72.5924 257.74 72.4115 257.828 72.1484L257.988 71.7188L256.48 67.5391H257.27L258.324 70.707Z" fill="#555555"/>
<path d="M272.93 66.6953H271.102V71.7656H270.355V66.6953H268.531V66.0781H272.93V66.6953Z" fill="#555555"/>
<path d="M275.023 71.8438C274.451 71.8438 273.984 71.6562 273.625 71.2812C273.266 70.9036 273.086 70.3997 273.086 69.7695V69.6367C273.086 69.2174 273.165 68.8438 273.324 68.5156C273.486 68.1849 273.71 67.9271 273.996 67.7422C274.285 67.5547 274.598 67.4609 274.934 67.4609C275.483 67.4609 275.91 67.6419 276.215 68.0039C276.52 68.3659 276.672 68.8841 276.672 69.5586V69.8594H273.809C273.819 70.276 273.94 70.6133 274.172 70.8711C274.406 71.1263 274.703 71.2539 275.062 71.2539C275.318 71.2539 275.534 71.2018 275.711 71.0977C275.888 70.9935 276.043 70.8555 276.176 70.6836L276.617 71.0273C276.263 71.5716 275.732 71.8438 275.023 71.8438ZM274.934 68.0547C274.642 68.0547 274.397 68.1615 274.199 68.375C274.001 68.5859 273.879 68.8828 273.832 69.2656H275.949V69.2109C275.928 68.8438 275.829 68.5599 275.652 68.3594C275.475 68.1562 275.236 68.0547 274.934 68.0547Z" fill="#555555"/>
<path d="M279.555 68.1875C279.445 68.1693 279.327 68.1602 279.199 68.1602C278.725 68.1602 278.404 68.362 278.234 68.7656V71.7656H277.512V67.5391H278.215L278.227 68.0273C278.464 67.6497 278.799 67.4609 279.234 67.4609C279.375 67.4609 279.482 67.4792 279.555 67.5156V68.1875Z" fill="#555555"/>
<path d="M280.902 67.5391L280.922 68.0078C281.232 67.6432 281.65 67.4609 282.176 67.4609C282.767 67.4609 283.169 67.6875 283.383 68.1406C283.523 67.9375 283.706 67.7734 283.93 67.6484C284.156 67.5234 284.423 67.4609 284.73 67.4609C285.658 67.4609 286.129 67.9518 286.145 68.9336V71.7656H285.422V68.9766C285.422 68.6745 285.353 68.4492 285.215 68.3008C285.077 68.1497 284.845 68.0742 284.52 68.0742C284.251 68.0742 284.029 68.1549 283.852 68.3164C283.674 68.4753 283.572 68.6901 283.543 68.9609V71.7656H282.816V68.9961C282.816 68.3815 282.516 68.0742 281.914 68.0742C281.44 68.0742 281.116 68.276 280.941 68.6797V71.7656H280.219V67.5391H280.902Z" fill="#555555"/>
<path d="M289.699 70.6445C289.699 70.4492 289.625 70.2982 289.477 70.1914C289.331 70.082 289.074 69.9883 288.707 69.9102C288.342 69.832 288.052 69.7383 287.836 69.6289C287.622 69.5195 287.464 69.3893 287.359 69.2383C287.258 69.0872 287.207 68.9076 287.207 68.6992C287.207 68.3529 287.353 68.0599 287.645 67.8203C287.939 67.5807 288.314 67.4609 288.77 67.4609C289.249 67.4609 289.637 67.5846 289.934 67.832C290.233 68.0794 290.383 68.3958 290.383 68.7812H289.656C289.656 68.5833 289.572 68.4128 289.402 68.2695C289.236 68.1263 289.025 68.0547 288.77 68.0547C288.507 68.0547 288.301 68.112 288.152 68.2266C288.004 68.3411 287.93 68.4909 287.93 68.6758C287.93 68.8503 287.999 68.9818 288.137 69.0703C288.275 69.1589 288.523 69.2435 288.883 69.3242C289.245 69.4049 289.538 69.5013 289.762 69.6133C289.986 69.7253 290.151 69.8607 290.258 70.0195C290.367 70.1758 290.422 70.3672 290.422 70.5938C290.422 70.9714 290.271 71.2747 289.969 71.5039C289.667 71.7305 289.275 71.8438 288.793 71.8438C288.454 71.8438 288.155 71.7839 287.895 71.6641C287.634 71.5443 287.43 71.3776 287.281 71.1641C287.135 70.9479 287.062 70.7148 287.062 70.4648H287.785C287.798 70.707 287.895 70.8997 288.074 71.043C288.257 71.1836 288.496 71.2539 288.793 71.2539C289.066 71.2539 289.285 71.1992 289.449 71.0898C289.616 70.9779 289.699 70.8294 289.699 70.6445Z" fill="#555555"/>
<path d="M265.328 69.9648H263.277V69.1992H265.328V69.9648Z" fill="black"/>
<g filter="url(#filter1_d_1574_87300)">
<path d="M274.401 23.3378C274.266 23.1691 274.126 23.0031 273.983 22.84C271.688 20.234 268.522 18.554 265.077 18.1147C261.633 17.6754 258.146 18.507 255.271 20.4537L259.387 26.5341C260.783 25.589 262.476 25.1853 264.148 25.3985C265.821 25.6118 267.358 26.4275 268.472 27.6927C268.722 27.9763 268.946 28.2781 269.145 28.5947L265.501 32.2385H277.61V20.1292L274.401 23.3378Z" fill="#1C3AA9"/>
</g>
<g filter="url(#filter2_d_1574_87300)">
<path d="M263.238 18.0006H251.129L254.301 21.1724C251.931 23.0879 250.227 25.72 249.457 28.6903C248.585 32.0516 248.969 35.6152 250.536 38.7138L257.089 35.3996C256.328 33.8953 256.142 32.1651 256.565 30.5333C256.988 28.9014 257.991 27.4797 259.387 26.5346C259.442 26.4974 259.498 26.4609 259.554 26.4253L263.238 30.1099V18.0006Z" fill="#4285F4"/>
</g>
<g filter="url(#filter3_d_1574_87300)">
<path d="M249 32.3716H261.109L257.451 36.0302C258.227 37.2318 259.359 38.1693 260.698 38.705C262.263 39.3312 264.003 39.3652 265.592 38.8007C267.18 38.2363 268.509 37.112 269.328 35.6385L274.624 40.9213C272.954 43.1132 270.674 44.7873 268.05 45.7197C264.778 46.8824 261.195 46.8123 257.971 45.5225C255.703 44.6153 253.722 43.1482 252.202 41.2793L249 44.4809V32.3716Z" fill="#ABABAB"/>
</g>
<path d="M60.5635 47H59.251V37.0469H60.5635V47Z" fill="black"/>
<path d="M62.8604 39.8496L62.1426 39.3574C62.5664 38.765 62.7852 38.1406 62.7988 37.4844V36.5H64.0498V37.3887C64.0452 37.8444 63.9313 38.3001 63.708 38.7559C63.4893 39.207 63.2067 39.5716 62.8604 39.8496Z" fill="black"/>
<path d="M66.627 39.6035L66.6611 40.4238C67.2035 39.7858 67.9349 39.4668 68.8555 39.4668C69.89 39.4668 70.5941 39.8633 70.9678 40.6562C71.2139 40.3008 71.5329 40.0137 71.9248 39.7949C72.3213 39.5762 72.7884 39.4668 73.3262 39.4668C74.9486 39.4668 75.7734 40.3258 75.8008 42.0439V47H74.5361V42.1191C74.5361 41.5905 74.4154 41.1963 74.1738 40.9365C73.9323 40.6722 73.5267 40.54 72.957 40.54C72.4876 40.54 72.098 40.6813 71.7881 40.9639C71.4782 41.2419 71.2982 41.6178 71.248 42.0918V47H69.9766V42.1533C69.9766 41.0778 69.4502 40.54 68.3975 40.54C67.568 40.54 67.0007 40.8932 66.6953 41.5996V47H65.4307V39.6035H66.627Z" fill="black"/>
<path d="M82.3838 39.6035L82.4248 40.5332C82.9899 39.8223 83.7282 39.4668 84.6396 39.4668C86.2028 39.4668 86.9912 40.3486 87.0049 42.1123V47H85.7402V42.1055C85.7357 41.5723 85.6126 41.1781 85.3711 40.9229C85.1341 40.6676 84.7627 40.54 84.2568 40.54C83.8467 40.54 83.4867 40.6494 83.1768 40.8682C82.8669 41.0869 82.6253 41.374 82.4521 41.7295V47H81.1875V39.6035H82.3838Z" fill="black"/>
<path d="M88.5771 43.2334C88.5771 42.5088 88.7184 41.8571 89.001 41.2783C89.2881 40.6995 89.6846 40.2529 90.1904 39.9385C90.7008 39.624 91.2819 39.4668 91.9336 39.4668C92.9408 39.4668 93.7542 39.8154 94.374 40.5127C94.9984 41.21 95.3105 42.1374 95.3105 43.2949V43.3838C95.3105 44.1038 95.1716 44.751 94.8936 45.3252C94.6201 45.8949 94.2259 46.3392 93.7109 46.6582C93.2005 46.9772 92.6126 47.1367 91.9473 47.1367C90.9447 47.1367 90.1312 46.7881 89.5068 46.0908C88.887 45.3936 88.5771 44.4707 88.5771 43.3223V43.2334ZM89.8486 43.3838C89.8486 44.2041 90.0378 44.8626 90.416 45.3594C90.7988 45.8561 91.3092 46.1045 91.9473 46.1045C92.5898 46.1045 93.1003 45.8538 93.4785 45.3525C93.8568 44.8467 94.0459 44.1403 94.0459 43.2334C94.0459 42.4222 93.8522 41.766 93.4648 41.2646C93.082 40.7588 92.5716 40.5059 91.9336 40.5059C91.3092 40.5059 90.8057 40.7542 90.4229 41.251C90.04 41.7477 89.8486 42.4587 89.8486 43.3838Z" fill="black"/>
<path d="M98.6123 37.8125V39.6035H99.9932V40.5811H98.6123V45.168C98.6123 45.4642 98.6738 45.6875 98.7969 45.8379C98.9199 45.9837 99.1296 46.0566 99.4258 46.0566C99.5716 46.0566 99.7721 46.0293 100.027 45.9746V47C99.6947 47.0911 99.3711 47.1367 99.0566 47.1367C98.4915 47.1367 98.0654 46.9658 97.7783 46.624C97.4912 46.2822 97.3477 45.7969 97.3477 45.168V40.5811H96.001V39.6035H97.3477V37.8125H98.6123Z" fill="black"/>
<path d="M109.516 47C109.443 46.8542 109.383 46.5944 109.338 46.2207C108.75 46.8314 108.048 47.1367 107.232 47.1367C106.503 47.1367 105.904 46.9316 105.435 46.5215C104.97 46.1068 104.737 45.5827 104.737 44.9492C104.737 44.179 105.029 43.582 105.612 43.1582C106.2 42.7298 107.025 42.5156 108.087 42.5156H109.317V41.9346C109.317 41.4925 109.185 41.1416 108.921 40.8818C108.657 40.6175 108.267 40.4854 107.752 40.4854C107.301 40.4854 106.923 40.5993 106.617 40.8271C106.312 41.055 106.159 41.3307 106.159 41.6543H104.888C104.888 41.2852 105.018 40.9297 105.277 40.5879C105.542 40.2415 105.897 39.9681 106.344 39.7676C106.795 39.5671 107.289 39.4668 107.827 39.4668C108.679 39.4668 109.347 39.681 109.83 40.1094C110.313 40.5332 110.564 41.1188 110.582 41.8662V45.2705C110.582 45.9495 110.669 46.4896 110.842 46.8906V47H109.516ZM107.417 46.0361C107.813 46.0361 108.189 45.9336 108.545 45.7285C108.9 45.5234 109.158 45.2568 109.317 44.9287V43.4111H108.326C106.777 43.4111 106.002 43.8646 106.002 44.7715C106.002 45.168 106.134 45.4779 106.398 45.7012C106.663 45.9245 107.002 46.0361 107.417 46.0361Z" fill="black"/>
<path d="M119.612 40.7383C119.421 40.7064 119.214 40.6904 118.99 40.6904C118.161 40.6904 117.598 41.0436 117.302 41.75V47H116.037V39.6035H117.268L117.288 40.458C117.703 39.7972 118.291 39.4668 119.052 39.4668C119.298 39.4668 119.485 39.4987 119.612 39.5625V40.7383Z" fill="black"/>
<path d="M120.31 43.2334C120.31 42.5088 120.451 41.8571 120.733 41.2783C121.021 40.6995 121.417 40.2529 121.923 39.9385C122.433 39.624 123.014 39.4668 123.666 39.4668C124.673 39.4668 125.487 39.8154 126.106 40.5127C126.731 41.21 127.043 42.1374 127.043 43.2949V43.3838C127.043 44.1038 126.904 44.751 126.626 45.3252C126.353 45.8949 125.958 46.3392 125.443 46.6582C124.933 46.9772 124.345 47.1367 123.68 47.1367C122.677 47.1367 121.864 46.7881 121.239 46.0908C120.619 45.3936 120.31 44.4707 120.31 43.3223V43.2334ZM121.581 43.3838C121.581 44.2041 121.77 44.8626 122.148 45.3594C122.531 45.8561 123.042 46.1045 123.68 46.1045C124.322 46.1045 124.833 45.8538 125.211 45.3525C125.589 44.8467 125.778 44.1403 125.778 43.2334C125.778 42.4222 125.585 41.766 125.197 41.2646C124.814 40.7588 124.304 40.5059 123.666 40.5059C123.042 40.5059 122.538 40.7542 122.155 41.251C121.772 41.7477 121.581 42.4587 121.581 43.3838Z" fill="black"/>
<path d="M134.891 43.3838C134.891 44.514 134.631 45.4232 134.111 46.1113C133.592 46.7949 132.895 47.1367 132.02 47.1367C131.085 47.1367 130.363 46.8063 129.853 46.1455L129.791 47H128.629V36.5H129.894V40.417C130.404 39.7835 131.108 39.4668 132.006 39.4668C132.904 39.4668 133.608 39.8063 134.118 40.4854C134.633 41.1644 134.891 42.0941 134.891 43.2744V43.3838ZM133.626 43.2402C133.626 42.3789 133.46 41.7135 133.127 41.2441C132.794 40.7747 132.316 40.54 131.691 40.54C130.857 40.54 130.258 40.9274 129.894 41.7021V44.9014C130.281 45.6761 130.885 46.0635 131.705 46.0635C132.311 46.0635 132.783 45.8288 133.12 45.3594C133.457 44.89 133.626 44.1836 133.626 43.2402Z" fill="black"/>
<path d="M136.155 43.2334C136.155 42.5088 136.297 41.8571 136.579 41.2783C136.866 40.6995 137.263 40.2529 137.769 39.9385C138.279 39.624 138.86 39.4668 139.512 39.4668C140.519 39.4668 141.332 39.8154 141.952 40.5127C142.576 41.21 142.889 42.1374 142.889 43.2949V43.3838C142.889 44.1038 142.75 44.751 142.472 45.3252C142.198 45.8949 141.804 46.3392 141.289 46.6582C140.779 46.9772 140.191 47.1367 139.525 47.1367C138.523 47.1367 137.709 46.7881 137.085 46.0908C136.465 45.3936 136.155 44.4707 136.155 43.3223V43.2334ZM137.427 43.3838C137.427 44.2041 137.616 44.8626 137.994 45.3594C138.377 45.8561 138.887 46.1045 139.525 46.1045C140.168 46.1045 140.678 45.8538 141.057 45.3525C141.435 44.8467 141.624 44.1403 141.624 43.2334C141.624 42.4222 141.43 41.766 141.043 41.2646C140.66 40.7588 140.15 40.5059 139.512 40.5059C138.887 40.5059 138.384 40.7542 138.001 41.251C137.618 41.7477 137.427 42.4587 137.427 43.3838Z" fill="black"/>
<path d="M146.19 37.8125V39.6035H147.571V40.5811H146.19V45.168C146.19 45.4642 146.252 45.6875 146.375 45.8379C146.498 45.9837 146.708 46.0566 147.004 46.0566C147.15 46.0566 147.35 46.0293 147.605 45.9746V47C147.273 47.0911 146.949 47.1367 146.635 47.1367C146.07 47.1367 145.644 46.9658 145.356 46.624C145.069 46.2822 144.926 45.7969 144.926 45.168V40.5811H143.579V39.6035H144.926V37.8125H146.19Z" fill="black"/>
<path fill-rule="evenodd" clip-rule="evenodd" d="M43.9259 30H20.0741C20.0332 30 20 30.0332 20 30.0741V53.9259C20 53.9668 20.0332 54 20.0741 54H43.9259C43.9668 54 44 53.9668 44 53.9259V30.0741C44 30.0332 43.9668 30 43.9259 30ZM43.9259 28H20.0741C18.9286 28 18 28.9286 18 30.0741V53.9259C18 55.0714 18.9286 56 20.0741 56H43.9259C45.0714 56 46 55.0714 46 53.9259V30.0741C46 28.9286 45.0714 28 43.9259 28Z" fill="#C1C1C1"/>
<rect x="20" y="30" width="24" height="24" fill="white"/>
<defs>
<filter id="filter0_d_1574_87300" x="0" y="0" width="308" height="86" filterUnits="userSpaceOnUse" color-interpolation-filters="sRGB">
<feFlood flood-opacity="0" result="BackgroundImageFix"/>
<feColorMatrix in="SourceAlpha" type="matrix" values="0 0 0 0 0 0 0 0 0 0 0 0 0 0 0 0 0 0 127 0" result="hardAlpha"/>
<feMorphology radius="1" operator="dilate" in="SourceAlpha" result="effect1_dropShadow_1574_87300"/>
<feOffset/>
<feGaussianBlur stdDeviation="2"/>
<feColorMatrix type="matrix" values="0 0 0 0 0 0 0 0 0 0 0 0 0 0 0 0 0 0 0.08 0"/>
<feBlend mode="normal" in2="BackgroundImageFix" result="effect1_dropShadow_1574_87300"/>
<feBlend mode="normal" in="SourceGraphic" in2="effect1_dropShadow_1574_87300" result="shape"/>
</filter>
<filter id="filter1_d_1574_87300" x="254.271" y="17" width="24.3394" height="16.2385" filterUnits="userSpaceOnUse" color-interpolation-filters="sRGB">
<feFlood flood-opacity="0" result="BackgroundImageFix"/>
<feColorMatrix in="SourceAlpha" type="matrix" values="0 0 0 0 0 0 0 0 0 0 0 0 0 0 0 0 0 0 127 0" result="hardAlpha"/>
<feOffset/>
<feGaussianBlur stdDeviation="0.5"/>
<feColorMatrix type="matrix" values="0 0 0 0 0 0 0 0 0 0 0 0 0 0 0 0 0 0 0.38 0"/>
<feBlend mode="normal" in2="BackgroundImageFix" result="effect1_dropShadow_1574_87300"/>
<feBlend mode="normal" in="SourceGraphic" in2="effect1_dropShadow_1574_87300" result="shape"/>
</filter>
<filter id="filter2_d_1574_87300" x="248" y="17.0006" width="16.2383" height="22.7131" filterUnits="userSpaceOnUse" color-interpolation-filters="sRGB">
<feFlood flood-opacity="0" result="BackgroundImageFix"/>
<feColorMatrix in="SourceAlpha" type="matrix" values="0 0 0 0 0 0 0 0 0 0 0 0 0 0 0 0 0 0 127 0" result="hardAlpha"/>
<feOffset/>
<feGaussianBlur stdDeviation="0.5"/>
<feColorMatrix type="matrix" values="0 0 0 0 0 0 0 0 0 0 0 0 0 0 0 0 0 0 0.38 0"/>
<feBlend mode="normal" in2="BackgroundImageFix" result="effect1_dropShadow_1574_87300"/>
<feBlend mode="normal" in="SourceGraphic" in2="effect1_dropShadow_1574_87300" result="shape"/>
</filter>
<filter id="filter3_d_1574_87300" x="248" y="31.3716" width="27.6235" height="16.1719" filterUnits="userSpaceOnUse" color-interpolation-filters="sRGB">
<feFlood flood-opacity="0" result="BackgroundImageFix"/>
<feColorMatrix in="SourceAlpha" type="matrix" values="0 0 0 0 0 0 0 0 0 0 0 0 0 0 0 0 0 0 127 0" result="hardAlpha"/>
<feOffset/>
<feGaussianBlur stdDeviation="0.5"/>
<feColorMatrix type="matrix" values="0 0 0 0 0 0 0 0 0 0 0 0 0 0 0 0 0 0 0.38 0"/>
<feBlend mode="normal" in2="BackgroundImageFix" result="effect1_dropShadow_1574_87300"/>
<feBlend mode="normal" in="SourceGraphic" in2="effect1_dropShadow_1574_87300" result="shape"/>
</filter>
</defs>
</svg>
