<svg width="36" height="35" viewBox="0 0 36 35" fill="none" xmlns="http://www.w3.org/2000/svg">
<g clip-path="url(#clip0_4458_274449)">
<mask id="mask0_4458_274449" style="mask-type:luminance" maskUnits="userSpaceOnUse" x="0" y="0" width="36" height="35">
<path d="M0.513672 0H35.5137V35H0.513672V0Z" fill="white"/>
</mask>
<g mask="url(#mask0_4458_274449)">
<path fill-rule="evenodd" clip-rule="evenodd" d="M11.0749 8.50934L11.1507 8.51663C11.4686 8.55018 11.7851 8.58226 12.1001 8.57934C13.5176 8.56526 14.8747 8.0035 15.8874 7.01163C16.112 6.78997 16.3132 6.54351 16.5145 6.29559L16.5626 6.23726C16.8368 5.89747 17.0103 5.68601 17.1459 5.52997C17.2597 5.39872 17.3049 5.35934 17.3078 5.35497C17.507 5.19221 17.7564 5.1033 18.0136 5.1033C18.2709 5.1033 18.5202 5.19221 18.7195 5.35497C18.7224 5.35934 18.7661 5.39872 18.8813 5.52997C19.017 5.68601 19.189 5.89747 19.4647 6.2358L19.5128 6.29413C19.714 6.54205 19.9153 6.78997 20.1399 7.01163C21.1522 8.00316 22.5088 8.56488 23.9257 8.57934C24.2422 8.58226 24.5586 8.55018 24.8765 8.51663L24.9524 8.50934C25.3855 8.46559 25.6568 8.43643 25.8638 8.42184C26.0388 8.41018 26.0972 8.41309 26.1015 8.41309C26.3573 8.439 26.5962 8.55242 26.778 8.73417C26.9597 8.91592 27.0731 9.15486 27.0991 9.41059C27.0991 9.41643 27.1034 9.47476 27.0918 9.64976C27.0772 9.85538 27.048 10.1281 27.0043 10.5612L26.997 10.6371C26.9634 10.955 26.9299 11.2714 26.9343 11.5864C26.9488 13.0039 27.5103 14.3616 28.502 15.3737C28.7222 15.5983 28.9701 15.7996 29.218 16.0008L29.2763 16.0489C29.6161 16.3246 29.8276 16.4966 29.9836 16.6323C30.1149 16.746 30.1543 16.7912 30.1586 16.7941C30.4941 17.2054 30.4941 17.7946 30.1586 18.2058C30.1543 18.2087 30.1149 18.2539 29.9836 18.3677C29.7512 18.5656 29.5159 18.76 29.2778 18.951L29.2195 18.9991C28.9701 19.2004 28.7236 19.4016 28.502 19.6262C27.5101 20.6389 26.9483 21.996 26.9343 23.4135C26.9299 23.7285 26.9634 24.045 26.997 24.3629L27.0043 24.4387C27.048 24.8718 27.0772 25.1446 27.0918 25.3502C27.1034 25.5252 27.1005 25.5835 27.0991 25.5893C27.0731 25.8451 26.9597 26.084 26.778 26.2658C26.5962 26.4475 26.3573 26.5609 26.1015 26.5868C26.0972 26.5868 26.0388 26.5898 25.8638 26.5781C25.6568 26.5635 25.3855 26.5343 24.9524 26.4906L24.8765 26.4833C24.5615 26.4444 24.2446 26.4235 23.9272 26.4206C22.5097 26.4347 21.1526 26.9964 20.1399 27.9883C19.9153 28.2085 19.714 28.4564 19.5128 28.7043L19.4647 28.7627C19.189 29.1025 19.017 29.3139 18.8813 29.47C18.7676 29.6012 18.7224 29.6406 18.7195 29.645C18.5202 29.8077 18.2709 29.8966 18.0136 29.8966C17.7564 29.8966 17.507 29.8077 17.3078 29.645C17.2506 29.5897 17.1966 29.5312 17.1459 29.47C16.948 29.2376 16.7535 29.0023 16.5626 28.7641L16.5145 28.7058C16.3132 28.4579 16.112 28.21 15.8874 27.9883C14.8747 26.9964 13.5176 26.4347 12.1001 26.4206C11.7827 26.4235 11.4657 26.4445 11.1507 26.4833L11.0749 26.4906C10.6403 26.5343 10.3691 26.5635 10.1634 26.5781C9.98843 26.5898 9.93009 26.5868 9.92426 26.5868C9.66831 26.5609 9.42919 26.4472 9.24741 26.2652C9.06563 26.0832 8.95235 25.8439 8.92676 25.5879C8.92676 25.5835 8.92384 25.5252 8.93551 25.3502C8.95009 25.1446 8.9778 24.8718 9.02301 24.4387L9.0303 24.3629C9.06384 24.045 9.09593 23.7285 9.09301 23.4135C9.07892 21.996 8.51717 20.6389 7.5253 19.6262C7.30363 19.4016 7.05717 19.2004 6.80926 18.9991L6.75093 18.951C6.51232 18.76 6.27653 18.5656 6.04363 18.3677C5.98239 18.317 5.92396 18.2629 5.86863 18.2058C5.70587 18.0066 5.61696 17.7572 5.61696 17.5C5.61696 17.2427 5.70587 16.9934 5.86863 16.7941C5.92396 16.737 5.98238 16.683 6.04363 16.6323C6.19968 16.4966 6.41113 16.3246 6.74947 16.0489L6.8078 16.0008C7.05572 15.7996 7.30363 15.5983 7.5253 15.3737C8.51717 14.361 9.07892 13.0039 9.09301 11.5864C9.09006 11.269 9.06913 10.9521 9.0303 10.6371L9.02301 10.5612C8.9778 10.1281 8.95009 9.85538 8.93551 9.64976C8.9282 9.57026 8.92528 9.49042 8.92676 9.41059C8.95267 9.15486 9.06608 8.91592 9.24784 8.73417C9.42959 8.55242 9.66853 8.439 9.92426 8.41309C9.93009 8.41309 9.98843 8.41018 10.1634 8.42184C10.3691 8.43643 10.6403 8.46559 11.0749 8.50934ZM14.8636 4.85622C15.3945 4.20288 15.6599 3.87622 15.9209 3.6633C16.511 3.18067 17.2499 2.91699 18.0122 2.91699C18.7745 2.91699 19.5133 3.18067 20.1034 3.6633C20.363 3.87622 20.6284 4.20288 21.1607 4.85622C21.4101 5.16393 21.5355 5.31851 21.6697 5.4483C22.2778 6.04622 23.0945 6.38309 23.9476 6.39184C24.208 6.38635 24.468 6.36688 24.7263 6.33351C25.5634 6.24601 25.9834 6.20226 26.3174 6.23726C27.0759 6.31323 27.7848 6.64923 28.3239 7.18828C28.8629 7.72732 29.1989 8.43623 29.2749 9.19476C29.3084 9.53018 29.2647 9.94726 29.1786 10.7858C29.1378 11.1796 29.1174 11.3779 29.1203 11.5646C29.1276 12.4177 29.4659 13.2329 30.0638 13.8425C30.1951 13.9766 30.3482 14.1006 30.6559 14.3514C31.3093 14.8823 31.6359 15.1491 31.8488 15.4087C32.3315 15.9988 32.5952 16.7377 32.5952 17.5C32.5952 18.2623 32.3315 19.0011 31.8488 19.5912C31.6359 19.8523 31.3093 20.1162 30.6559 20.6485C30.3482 20.8993 30.1936 21.0233 30.0638 21.1575C29.4659 21.7671 29.1276 22.5823 29.1188 23.4354C29.1188 23.6221 29.1378 23.8204 29.1786 24.2141C29.2661 25.0527 29.3099 25.4712 29.2749 25.8052C29.1989 26.5637 28.8629 27.2726 28.3239 27.8117C27.7848 28.3507 27.0759 28.6867 26.3174 28.7627C25.982 28.7962 25.5634 28.7539 24.7263 28.6664C24.3326 28.6256 24.1343 28.6052 23.9476 28.6081C23.095 28.6168 22.2787 28.9549 21.6697 29.5516C21.5355 29.6829 21.4101 29.836 21.1593 30.1437C20.6284 30.7971 20.363 31.1237 20.1034 31.3366C19.5133 31.8193 18.7745 32.0829 18.0122 32.0829C17.2499 32.0829 16.511 31.8193 15.9209 31.3366C15.6599 31.1237 15.3959 30.7971 14.8636 30.1437C14.7047 29.9374 14.5348 29.7398 14.3547 29.5516C13.7455 28.955 12.9294 28.617 12.0768 28.6081C11.8901 28.6052 11.6918 28.6256 11.298 28.6664C10.4595 28.7539 10.0409 28.7977 9.70697 28.7627C8.94844 28.6867 8.23953 28.3507 7.70049 27.8117C7.16144 27.2726 6.82544 26.5637 6.74947 25.8052C6.71593 25.4698 6.75822 25.0512 6.84572 24.2141C6.88655 23.8204 6.90697 23.6221 6.90405 23.4354C6.89534 22.5828 6.55724 21.7665 5.96051 21.1575C5.82926 21.0233 5.67613 20.8979 5.36842 20.6485C4.71509 20.1177 4.38842 19.8508 4.17551 19.5912C3.69288 19.0011 3.4292 18.2623 3.4292 17.5C3.4292 16.7377 3.69288 15.9988 4.17551 15.4087C4.38842 15.1477 4.71509 14.8837 5.36842 14.3514C5.67467 14.1006 5.82926 13.9766 5.96051 13.8425C6.55842 13.2329 6.8953 12.4177 6.90405 11.5646C6.89855 11.3041 6.87908 11.0442 6.84572 10.7858C6.75822 9.94726 6.71447 9.52872 6.74947 9.19476C6.82544 8.43623 7.16144 7.72732 7.70049 7.18828C8.23953 6.64923 8.94844 6.31323 9.70697 6.23726C10.0409 6.20372 10.4595 6.24601 11.2966 6.33351C11.6903 6.37434 11.8901 6.39476 12.0768 6.39184C12.9294 6.38313 13.7456 6.04504 14.3547 5.4483C14.4888 5.31705 14.6128 5.16393 14.8636 4.85622ZM23.1615 15.3562C23.266 15.2553 23.3492 15.1345 23.4065 15.0011C23.4637 14.8676 23.4939 14.7241 23.495 14.5788C23.4962 14.4336 23.4685 14.2896 23.4134 14.1552C23.3584 14.0208 23.2771 13.8987 23.1744 13.7961C23.0716 13.6935 22.9495 13.6123 22.815 13.5574C22.6806 13.5024 22.5365 13.4748 22.3913 13.4762C22.2461 13.4775 22.1026 13.5077 21.9692 13.5651C21.8358 13.6225 21.7151 13.7059 21.6143 13.8104L16.5553 18.8708L14.4115 16.7271C14.2042 16.5339 13.93 16.4287 13.6466 16.4337C13.3633 16.4387 13.0929 16.5535 12.8925 16.7539C12.6921 16.9542 12.5773 17.2246 12.5723 17.508C12.5673 17.7913 12.6725 18.0655 12.8657 18.2729L15.7824 21.1896C15.9875 21.3944 16.2655 21.5094 16.5553 21.5094C16.8451 21.5094 17.1231 21.3944 17.3282 21.1896L23.1615 15.3562Z" fill="black"/>
</g>
</g>
<defs>
<clipPath id="clip0_4458_274449">
<rect width="35" height="35" fill="white" transform="translate(0.513672)"/>
</clipPath>
</defs>
</svg>
