<svg width="36" height="31" viewBox="0 0 36 31" fill="none" xmlns="http://www.w3.org/2000/svg">
<path d="M30.6416 30.9609H4.87203C3.93833 30.9579 3.03074 30.6524 2.28527 30.0902C1.5398 29.528 0.996598 28.7394 0.737055 27.8424L0.356066 26.5094C0.246396 26.1255 0.227331 25.7213 0.300372 25.3288C0.373413 24.9362 0.536567 24.566 0.776992 24.2472C1.01742 23.9284 1.32855 23.6698 1.6859 23.4917C2.04326 23.3135 2.43708 23.2208 2.83636 23.2207H10.9524C11.3966 23.2221 11.833 23.3375 12.2198 23.5559C12.6066 23.7742 12.931 24.0882 13.1618 24.4677L13.7156 25.3854C13.7921 25.512 13.9 25.6168 14.0288 25.6895C14.1576 25.7623 14.303 25.8006 14.4509 25.8008H21.4549C21.6163 25.8017 21.7747 25.7569 21.9117 25.6715C22.0487 25.5861 22.1587 25.4636 22.2289 25.3183L22.548 24.6664C22.7613 24.2347 23.0905 23.8709 23.4987 23.6156C23.907 23.3602 24.3782 23.2235 24.8597 23.2207H32.6773C33.0766 23.2208 33.4704 23.3135 33.8278 23.4917C34.1851 23.6698 34.4963 23.9284 34.7367 24.2472C34.9771 24.566 35.1403 24.9362 35.2133 25.3288C35.2863 25.7213 35.2673 26.1255 35.1576 26.5094L34.7775 27.8424C34.5176 28.7393 33.9742 29.5279 33.2287 30.0901C32.4831 30.6523 31.5754 30.9578 30.6416 30.9609ZM2.83636 24.9407C2.70335 24.9408 2.57218 24.9718 2.45316 25.0311C2.33413 25.0905 2.2305 25.1767 2.1504 25.2829C2.0703 25.389 2.01593 25.5124 1.99154 25.6431C1.96716 25.7739 1.97344 25.9085 2.00988 26.0364L2.39087 27.3703C2.5468 27.9083 2.87281 28.3813 3.3201 28.7186C3.76739 29.0558 4.31187 29.239 4.87203 29.2408H30.6416C31.202 29.2389 31.7466 29.0555 32.194 28.7181C32.6415 28.3808 32.9676 27.9076 33.1237 27.3694L33.5038 26.0373C33.5404 25.9093 33.5468 25.7746 33.5225 25.6437C33.4982 25.5128 33.4438 25.3894 33.3637 25.2831C33.2836 25.1768 33.1799 25.0906 33.0608 25.0312C32.9417 24.9718 32.8104 24.9408 32.6773 24.9407H24.8597C24.6987 24.941 24.5409 24.9862 24.4041 25.0713C24.2674 25.1564 24.1571 25.278 24.0857 25.4224L23.7666 26.0751C23.5562 26.5091 23.2277 26.8749 22.8188 27.1306C22.4099 27.3863 21.9372 27.5216 21.4549 27.5208H14.4509C14.0067 27.5196 13.5702 27.4042 13.1835 27.1857C12.7967 26.9672 12.4726 26.6528 12.2424 26.2729L11.6885 25.3561C11.612 25.2294 11.504 25.1245 11.375 25.0518C11.246 24.979 11.1005 24.9407 10.9524 24.9407H2.83636Z" fill="black"/>
<path d="M33.2372 25.0094C33.0091 25.0094 32.7904 24.9187 32.6291 24.7575C32.4678 24.5962 32.3772 24.3774 32.3772 24.1493V4.3001C32.3772 3.61582 32.1054 2.95957 31.6215 2.47572C31.1377 1.99186 30.4814 1.72004 29.7971 1.72004H5.7166C5.03233 1.72004 4.37608 1.99186 3.89222 2.47572C3.40837 2.95957 3.13654 3.61582 3.13654 4.3001V24.1493C3.13654 24.3774 3.04593 24.5962 2.88465 24.7575C2.72336 24.9187 2.50461 25.0094 2.27652 25.0094C2.04843 25.0094 1.82968 24.9187 1.6684 24.7575C1.50711 24.5962 1.4165 24.3774 1.4165 24.1493V4.3001C1.41787 3.16006 1.87135 2.06711 2.67748 1.26098C3.48361 0.454849 4.57656 0.00136559 5.7166 0H29.7971C30.9372 0.00136559 32.0301 0.454849 32.8363 1.26098C33.6424 2.06711 34.0959 3.16006 34.0972 4.3001V24.1493C34.0972 24.3774 34.0066 24.5962 33.8453 24.7575C33.6841 24.9187 33.4653 25.0094 33.2372 25.0094Z" fill="black"/>
<path d="M28.937 21.5007H6.57648C6.1203 21.5007 5.6828 21.3195 5.36023 20.9969C5.03766 20.6743 4.85645 20.2368 4.85645 19.7806V6.02033C4.85645 5.56415 5.03766 5.12665 5.36023 4.80408C5.6828 4.48151 6.1203 4.30029 6.57648 4.30029H11.04C11.2681 4.30029 11.4868 4.3909 11.6481 4.55219C11.8094 4.71347 11.9 4.93222 11.9 5.16031C11.9 5.3884 11.8094 5.60715 11.6481 5.76844C11.4868 5.92972 11.2681 6.02033 11.04 6.02033H6.57648V19.7806H28.937V6.02033H24.6369C24.4088 6.02033 24.19 5.92972 24.0288 5.76844C23.8675 5.60715 23.7769 5.3884 23.7769 5.16031C23.7769 4.93222 23.8675 4.71347 24.0288 4.55219C24.19 4.3909 24.4088 4.30029 24.6369 4.30029H28.937C29.3932 4.30029 29.8307 4.48151 30.1532 4.80408C30.4758 5.12665 30.657 5.56415 30.657 6.02033V19.7806C30.657 20.2368 30.4758 20.6743 30.1532 20.9969C29.8307 21.3195 29.3932 21.5007 28.937 21.5007Z" fill="black"/>
<path d="M16.897 10.3203C16.6689 10.3202 16.4502 10.2296 16.2889 10.0683L15.4289 9.20829C15.2723 9.04608 15.1856 8.82884 15.1875 8.60335C15.1895 8.37785 15.2799 8.16215 15.4394 8.00269C15.5988 7.84324 15.8146 7.75279 16.04 7.75083C16.2655 7.74887 16.4828 7.83556 16.645 7.99222L16.897 8.2442L18.869 6.27218C19.0312 6.11552 19.2484 6.02883 19.4739 6.03079C19.6994 6.03275 19.9151 6.1232 20.0746 6.28266C20.234 6.44211 20.3245 6.65781 20.3264 6.88331C20.3284 7.1088 20.2417 7.32604 20.0851 7.48825L17.505 10.0683C17.3438 10.2296 17.125 10.3202 16.897 10.3203Z" fill="black"/>
<path d="M17.7569 12.9003C16.7364 12.9003 15.7387 12.5977 14.8901 12.0307C14.0416 11.4637 13.3802 10.6578 12.9896 9.71489C12.5991 8.772 12.4969 7.73447 12.696 6.73351C12.8951 5.73254 13.3865 4.8131 14.1082 4.09144C14.8298 3.36979 15.7493 2.87833 16.7502 2.67923C17.7512 2.48013 18.7887 2.58231 19.7316 2.97287C20.6745 3.36343 21.4804 4.02481 22.0474 4.87339C22.6144 5.72197 22.9171 6.71962 22.9171 7.7402C22.9157 9.10832 22.3716 10.42 21.4042 11.3874C20.4368 12.3549 19.1251 12.8989 17.7569 12.9003ZM17.7569 4.30012C17.0766 4.30012 16.4115 4.50188 15.8457 4.87988C15.28 5.25788 14.8391 5.79514 14.5787 6.42373C14.3183 7.05233 14.2502 7.74401 14.383 8.41132C14.5157 9.07863 14.8433 9.69159 15.3244 10.1727C15.8055 10.6538 16.4185 10.9814 17.0858 11.1142C17.7531 11.2469 18.4448 11.1788 19.0734 10.9184C19.702 10.658 20.2393 10.2171 20.6173 9.6514C20.9953 9.08568 21.197 8.42058 21.197 7.7402C21.197 6.82783 20.8346 5.95283 20.1894 5.30769C19.5443 4.66255 18.6693 4.30012 17.7569 4.30012ZM12.1668 18.4904C11.9387 18.4904 11.72 18.3997 11.5588 18.2385L8.97872 15.6584C8.82206 15.4962 8.73538 15.2789 8.73734 15.0535C8.7393 14.828 8.82974 14.6123 8.9892 14.4528C9.14865 14.2933 9.36436 14.2029 9.58985 14.2009C9.81535 14.199 10.0326 14.2857 10.1948 14.4423L12.7748 17.0224C12.8951 17.1427 12.977 17.2959 13.0101 17.4627C13.0433 17.6295 13.0263 17.8024 12.9612 17.9595C12.8961 18.1166 12.7859 18.2509 12.6445 18.3454C12.5031 18.4399 12.3369 18.4904 12.1668 18.4904Z" fill="black"/>
<path d="M9.58689 18.4902C9.41682 18.4902 9.25058 18.4397 9.10918 18.3452C8.96779 18.2507 8.85758 18.1164 8.79251 17.9593C8.72743 17.8022 8.7104 17.6293 8.74357 17.4625C8.77674 17.2957 8.85861 17.1424 8.97885 17.0222L11.5589 14.4421C11.7211 14.2854 11.9384 14.1988 12.1638 14.2007C12.3893 14.2027 12.605 14.2931 12.7645 14.4526C12.924 14.612 13.0144 14.8277 13.0164 15.0532C13.0183 15.2787 12.9316 15.496 12.775 15.6582L10.1949 18.2382C10.0337 18.3995 9.81496 18.4902 9.58689 18.4902ZM19.0471 18.4902C18.819 18.4902 18.6003 18.3995 18.4391 18.2382L15.859 15.6582C15.7023 15.496 15.6157 15.2787 15.6176 15.0532C15.6196 14.8277 15.71 14.612 15.8695 14.4526C16.0289 14.2931 16.2446 14.2027 16.4701 14.2007C16.6956 14.1988 16.9129 14.2854 17.0751 14.4421L19.6551 17.0222C19.7754 17.1424 19.8572 17.2957 19.8904 17.4625C19.9236 17.6293 19.9066 17.8022 19.8415 17.9593C19.7764 18.1164 19.6662 18.2507 19.5248 18.3452C19.3834 18.4397 19.2172 18.4902 19.0471 18.4902Z" fill="black"/>
<path d="M16.4668 18.4902C16.2967 18.4902 16.1305 18.4397 15.9891 18.3452C15.8477 18.2507 15.7375 18.1164 15.6724 17.9593C15.6073 17.8022 15.5903 17.6293 15.6234 17.4625C15.6566 17.2957 15.7385 17.1424 15.8587 17.0222L18.4388 14.4421C18.601 14.2854 18.8182 14.1988 19.0437 14.2007C19.2692 14.2027 19.4849 14.2931 19.6444 14.4526C19.8038 14.612 19.8943 14.8277 19.8962 15.0532C19.8982 15.2787 19.8115 15.496 19.6549 15.6582L17.0748 18.2382C16.9136 18.3995 16.6948 18.4902 16.4668 18.4902ZM25.927 18.4902C25.6989 18.4902 25.4802 18.3995 25.3189 18.2382L22.7389 15.6582C22.5822 15.496 22.4955 15.2787 22.4975 15.0532C22.4995 14.8277 22.5899 14.612 22.7494 14.4526C22.9088 14.2931 23.1245 14.2027 23.35 14.2007C23.5755 14.1988 23.7928 14.2854 23.955 14.4421L26.535 17.0222C26.6553 17.1424 26.7371 17.2957 26.7703 17.4625C26.8035 17.6293 26.7864 17.8022 26.7214 17.9593C26.6563 18.1164 26.5461 18.2507 26.4047 18.3452C26.2633 18.4397 26.097 18.4902 25.927 18.4902Z" fill="black"/>
<path d="M23.3471 18.4902C23.1771 18.4902 23.0108 18.4397 22.8694 18.3452C22.728 18.2507 22.6178 18.1164 22.5528 17.9593C22.4877 17.8022 22.4707 17.6293 22.5038 17.4625C22.537 17.2957 22.6189 17.1424 22.7391 17.0222L25.3192 14.4421C25.4814 14.2854 25.6986 14.1988 25.9241 14.2007C26.1496 14.2027 26.3653 14.2931 26.5248 14.4526C26.6842 14.612 26.7747 14.8277 26.7766 15.0532C26.7786 15.2787 26.6919 15.496 26.5352 15.6582L23.9552 18.2382C23.7939 18.3995 23.5752 18.4902 23.3471 18.4902Z" fill="black"/>
</svg>
